<?xml version="1.0" encoding="utf-8"?>
<!-- Generator: Adobe Illustrator 27.1.1, SVG Export Plug-In . SVG Version: 6.00 Build 0)  -->
<svg version="1.1" id="Layer_1" xmlns="http://www.w3.org/2000/svg" xmlns:xlink="http://www.w3.org/1999/xlink" x="0px" y="0px"
	 viewBox="0 0 53.4 38.3" style="enable-background:new 0 0 53.4 38.3;" xml:space="preserve">
<style type="text/css">
	.st0{fill:none;stroke:#FFFFFF;stroke-width:1.3;stroke-linecap:round;stroke-linejoin:round;}
</style>
<g id="Layer_1_00000036226338426318331280000015637497886238230154_">
	<g id="Layer_2_2_">
		<g id="Layer_1-2_1_">
			<path class="st0" d="M9.8,20.5c0,0,2.6,7.7,12.1,7.3c9.5-0.4,8.7-2.5,8.7-2.5"/>
			<polyline class="st0" points="25.3,24.2 23.7,26.7 25.6,33 			"/>
			<line class="st0" x1="28.4" y1="27" x2="29.7" y2="30.1"/>
			<polyline class="st0" points="15.9,23.6 15.9,28.4 13,32.6 			"/>
			<polyline class="st0" points="35.9,15.7 37.2,11.2 40.9,5.4 			"/>
			<polyline class="st0" points="37.3,16.3 39.3,11.7 44.9,8.3 			"/>
			<path class="st0" d="M28.5,17.8c-2.7-1.9-5.9-2.7-9.2-2.4c-5.5,0.5-5.7,1-8,1.5S6,17.8,6,17.8s4,4,8.4,3.9s7.8-0.3,9.5-0.2
				c1.4,0.1,2.8,0.4,4.2,0.8"/>
			<path class="st0" d="M29.7,16.4c2.3-1.6,5.6-1.9,8,0.8c2.8,3.2,2.7,8.8,1,10.1c-1.9,1.5-6,0.9-9.6-3.4
				C27.3,21.7,27.5,18.4,29.7,16.4L29.7,16.4z"/>
			<path class="st0" d="M32.5,19.9c-0.7,0.1-1.2,0.7-1.1,1.3c0,1.1,0.7,2.1,1.9,2.4c0.7,0.1,1.3-0.3,1.5-1
				C34.8,21.2,33.4,19.6,32.5,19.9"/>
		</g>
	</g>
</g>
</svg>
