<?xml version="1.0" encoding="UTF-8"?><svg xmlns="http://www.w3.org/2000/svg" xmlns:xlink="http://www.w3.org/1999/xlink" viewBox="0 0 751 500"><defs><style>.cls-1{letter-spacing:0em;}.cls-2{letter-spacing:-.03em;}.cls-3,.cls-4{font-size:8px;}.cls-3,.cls-4,.cls-5,.cls-6,.cls-7{fill:#f9fbfc;font-family:RedHatDisplay-Regular, 'Red Hat Display';}.cls-8{letter-spacing:.03em;}.cls-9{fill:#fff;}.cls-10{letter-spacing:0em;}.cls-11{fill:#49ae48;}.cls-12{letter-spacing:-.05em;}.cls-13{letter-spacing:-.03em;}.cls-14{stroke:#3578e5;}.cls-14,.cls-15,.cls-16,.cls-17,.cls-18,.cls-19{stroke-miterlimit:10;}.cls-14,.cls-16,.cls-17,.cls-18,.cls-19{fill:none;}.cls-20{letter-spacing:-.02em;}.cls-21{letter-spacing:-.02em;}.cls-22{letter-spacing:-.1em;}.cls-23{letter-spacing:-.03em;}.cls-24,.cls-25{opacity:.5;}.cls-26{letter-spacing:-.02em;}.cls-27{letter-spacing:.01em;}.cls-28{letter-spacing:-.03em;}.cls-29{letter-spacing:-.03em;}.cls-15{fill:#1e1e1e;stroke:#000;}.cls-30{letter-spacing:0em;}.cls-31{letter-spacing:-.02em;}.cls-32{letter-spacing:0em;}.cls-4,.cls-5{opacity:.49;}.cls-33{letter-spacing:-.02em;}.cls-34{isolation:isolate;}.cls-35{fill:#001628;}.cls-36{letter-spacing:0em;}.cls-5{font-size:7px;}.cls-37{letter-spacing:-.08em;}.cls-38{filter:url(#drop-shadow-1);}.cls-39{letter-spacing:0em;}.cls-40{letter-spacing:0em;}.cls-41{letter-spacing:-.01em;}.cls-42{fill:#333;}.cls-16,.cls-19{stroke:#f9fbfc;}.cls-6{font-size:6px;}.cls-43,.cls-44{fill:#3578e5;}.cls-45{letter-spacing:-.04em;}.cls-46{fill:#e73555;}.cls-47{letter-spacing:-.02em;}.cls-48{letter-spacing:-.04em;}.cls-17{stroke:#f40f00;}.cls-49{letter-spacing:0em;}.cls-50{letter-spacing:-.02em;}.cls-51{letter-spacing:.02em;}.cls-52{letter-spacing:-.06em;}.cls-7{font-size:12px;}.cls-53{letter-spacing:0em;}.cls-54{fill:#fecb2f;}.cls-55{letter-spacing:-.03em;}.cls-56{letter-spacing:0em;}.cls-57{letter-spacing:-.02em;}.cls-58{letter-spacing:-.02em;}.cls-44,.cls-59{font-family:MyriadPro-Regular, 'Myriad Pro';font-size:15px;}.cls-59{fill:#6d6d6d;}.cls-60{letter-spacing:0em;}.cls-61{letter-spacing:-.02em;}.cls-62{letter-spacing:0em;}.cls-25{fill:#1f6485;mix-blend-mode:multiply;}.cls-63{letter-spacing:-.06em;}.cls-64{letter-spacing:0em;}.cls-65{letter-spacing:-.01em;}.cls-18{stroke:#0c3066;}.cls-66{letter-spacing:-.02em;}.cls-67{letter-spacing:-.05em;}.cls-68{letter-spacing:0em;}.cls-69{letter-spacing:0em;}.cls-19{opacity:.12;}.cls-70{letter-spacing:0em;}</style><filter id="drop-shadow-1" filterUnits="userSpaceOnUse"><feOffset dx="6" dy="5"/><feGaussianBlur result="blur" stdDeviation="2"/><feFlood flood-color="#50107a" flood-opacity=".3"/><feComposite in2="blur" operator="in"/><feComposite in="SourceGraphic"/></filter></defs><g class="cls-34"><g id="Layer_2"><g id="Background"><rect class="cls-15" x=".5" y=".5" width="750" height="499"/></g><g id="Objects"><g><g class="cls-24"><path class="cls-25" d="m646.96,101.36H110.19c-4.71,0-8.52,3.81-8.52,8.52v332.74h553.81V109.88c0-4.71-3.81-8.52-8.52-8.52Z"/></g><g class="cls-38"><rect class="cls-35" x="95" y="147" width="417" height="288.92"/><rect class="cls-35" x="512" y="147" width="136" height="288.92"/><rect class="cls-35" x="95" y="113.92" width="553" height="33.08"/><g><path class="cls-42" d="m101.75,94.66h539.83c3.73,0,6.75,3.03,6.75,6.75v12.57H95v-12.57c0-3.73,3.03-6.75,6.75-6.75Z"/><path class="cls-46" d="m109.84,104.32c0-2.13,1.73-3.86,3.86-3.86s3.86,1.73,3.86,3.86-1.73,3.86-3.86,3.86-3.86-1.73-3.86-3.86Z"/><circle class="cls-54" cx="130.82" cy="104.32" r="3.86"/><path class="cls-11" d="m144.09,104.32c0-2.13,1.73-3.86,3.86-3.86s3.86,1.73,3.86,3.86-1.73,3.86-3.86,3.86-3.86-1.73-3.86-3.86Z"/></g></g></g><g id="Layer_2-2"><g id="Layer_2-2"><path class="cls-9" d="m131.52,129.52h0c-.61.09-1.06.62-1.04,1.24,0,.9.62,1.68,1.5,1.88.08.02.16.03.24.03.25,0,.49-.08.69-.23.24-.17.4-.45.43-.75.02-.65-.24-1.27-.7-1.71-.29-.31-.7-.48-1.12-.46Zm1.04,2.36c-.13.09-.29.13-.44.1-.57-.14-.98-.65-.97-1.24-.02-.28.19-.53.47-.55.23,0,.45.09.61.26.32.3.5.73.49,1.17-.02.11-.09.21-.2.26h.04Z"/><path class="cls-9" d="m139.98,122.07c-.09-.16-.3-.21-.46-.11,0,0,0,0,0,0l-3.76,2.34-1.32,2.87c-.08-.06-.17-.11-.25-.17l.76-2.71,2.43-3.78c.1-.16.05-.36-.1-.47-.16-.1-.36-.05-.47.1l-2.46,3.82-.77,2.73c-1.36-.46-2.86-.22-4.03.62l-.07.05c-.24.2-.45.44-.63.7-1.78-1.15-3.89-1.66-6-1.45-1.43.09-2.85.33-4.23.73-.32.09-.63.18-1.04.26-1.46.3-3.51.58-3.53.58l-.69.09.48.48c.73.7,1.55,1.29,2.44,1.77h0c.77,1.8,2.15,3.26,3.91,4.11v.79l-1.8,2.64c-.1.16-.06.36.09.47.06.04.12.06.19.06.11,0,.22-.06.28-.15l1.92-2.81v-.71c1.03.36,2.11.53,3.2.52h.44c.41,0,.8-.04,1.16-.06l.95,3.26c.04.14.17.24.32.24.03,0,.06,0,.09,0,.18-.05.28-.23.23-.41,0,0,0,0,0,0l-.9-3.11c.76-.07,1.5-.19,2.24-.36l.77,1.76c.05.12.17.2.31.2.05,0,.09,0,.14-.03.17-.08.24-.28.17-.45l-.74-1.69c.43-.12.83-.36,1.15-.68v-.03c1,.91,2.28,1.44,3.63,1.51.66.02,1.3-.2,1.82-.6.58-.58.91-1.36.91-2.18.18-1.79-.37-3.57-1.51-4.96-.09-.1-.19-.2-.28-.28l1.31-2.84,3.59-2.22c.16-.09.21-.3.12-.45,0,0,0,0,0-.01Zm-25.11,6.69c.74-.11,1.91-.29,2.85-.48.45-.09.78-.19,1.1-.28,1.34-.38,2.72-.61,4.11-.7,1.96-.19,3.92.28,5.58,1.35-.19.41-.31.85-.34,1.31-.03.36,0,.72.07,1.07-.76-.2-1.54-.34-2.33-.44-.88-.06-2.31,0-4.29.07l-1.99.07c-1.02,0-2.02-.25-2.91-.75-.66-.34-1.28-.75-1.86-1.23Zm11.32,5.91l-.69.06-.99.05c-1.24.07-2.47-.13-3.63-.58l-.67-.31c-1.24-.67-2.27-1.68-2.95-2.92.76.31,1.57.45,2.39.44l2.03-.07c1.89-.07,3.37-.13,4.21-.07.89.11,1.77.28,2.64.52.14.33.34.63.57.9.27.33.55.64.85.93-.17.22-.83.79-3.76,1.06Zm9.92-1.88c0,.63-.23,1.24-.66,1.71-1,.79-3.55.62-5.85-2.23-1.12-1.3-.97-3.26.33-4.38,0,0,0,0,.01,0,1.06-.78,2.45-.94,3.66-.43l.12.06c.22.12.43.26.63.42l.03.03c.14.12.27.25.39.38,1,1.25,1.48,2.85,1.34,4.45Z"/></g></g></g><g id="graphics"><line class="cls-18" x1="95" y1="220.5" x2="512" y2="220.5"/><line class="cls-18" x1="95" y1="147.5" x2="648" y2="147.5"/><line class="cls-18" x1="512.51" y1="147" x2="512.03" y2="435.92"/><text class="cls-3" transform="translate(543.93 131.03)"><tspan x="0" y="0">u</tspan><tspan class="cls-10" x="4.39" y="0">s</tspan><tspan x="8" y="0">e</tspan><tspan class="cls-12" x="12.51" y="0">r</tspan><tspan x="14.91" y="0">@</tspan><tspan class="cls-65" x="21.12" y="0">m</tspan><tspan class="cls-58" x="27.91" y="0">yc</tspan><tspan x="35.78" y="0">om</tspan><tspan class="cls-10" x="47.38" y="0">p</tspan><tspan x="52.13" y="0">a</tspan><tspan class="cls-65" x="56.26" y="0">n</tspan><tspan class="cls-63" x="60.57" y="0">y</tspan><tspan class="cls-2" x="64.14" y="0">.</tspan><tspan class="cls-66" x="65.5" y="0">c</tspan><tspan x="69.45" y="0">om</tspan></text><polyline class="cls-16" points="634.73 128.03 637.31 131 640.09 128.03"/></g><g id="text"><text class="cls-59" transform="translate(171.94 134.68)"><tspan class="cls-69" x="0" y="0">S</tspan><tspan x="7.35" y="0">t</tspan><tspan class="cls-62" x="12.31" y="0">a</tspan><tspan x="19.48" y="0">tions</tspan></text><text class="cls-59" transform="translate(242.94 134.54)"><tspan class="cls-30" x="0" y="0">M</tspan><tspan x="12.15" y="0">odules</tspan></text><text class="cls-44" transform="translate(319.94 134.4)"><tspan x="0" y="0">D</tspan><tspan class="cls-62" x="9.99" y="0">a</tspan><tspan x="17.16" y="0">ta</tspan></text><rect class="cls-14" x="128" y="313.6" width="52.38" height="24.4" rx="6.21" ry="6.21"/><text class="cls-7" transform="translate(136.44 328.83)"><tspan class="cls-36" x="0" y="0">s</tspan><tspan x="5.41" y="0">en</tspan><tspan class="cls-10" x="18.77" y="0">s</tspan><tspan x="24.18" y="0">or</tspan></text><rect class="cls-14" x="211" y="313.6" width="52.38" height="24.4" rx="6.21" ry="6.21"/><text class="cls-7" transform="translate(220.92 328.83)"><tspan x="0" y="0">ing</tspan><tspan class="cls-36" x="16.02" y="0">e</tspan><tspan class="cls-65" x="22.85" y="0">s</tspan><tspan x="28.08" y="0">t</tspan></text><rect class="cls-14" x="298" y="340.6" width="52.38" height="24.4" rx="6.21" ry="6.21"/><rect class="cls-43" x="99" y="176" width="408" height="18"/><text class="cls-7" transform="translate(306.53 355.83)"><tspan x="0" y="0">d</tspan><tspan class="cls-66" x="7.08" y="0">e</tspan><tspan class="cls-57" x="13.61" y="0">t</tspan><tspan class="cls-1" x="17.8" y="0">e</tspan><tspan class="cls-27" x="24.58" y="0">c</tspan><tspan x="30.85" y="0">t</tspan></text><rect class="cls-17" x="381" y="340.6" width="52.38" height="24.4" rx="6.21" ry="6.21"/><text class="cls-7" transform="translate(395.19 355.83)"><tspan x="0" y="0">ale</tspan><tspan class="cls-56" x="15.36" y="0">r</tspan><tspan x="19.54" y="0">t</tspan></text><rect class="cls-14" x="298" y="285.6" width="52.38" height="24.4" rx="6.21" ry="6.21"/><text class="cls-7" transform="translate(305.28 300.83)"><tspan x="0" y="0">a</tspan><tspan class="cls-48" x="6.19" y="0">r</tspan><tspan x="9.91" y="0">chi</tspan><tspan class="cls-33" x="25.06" y="0">v</tspan><tspan class="cls-64" x="30.97" y="0">e</tspan></text><line class="cls-14" x1="180.38" y1="325.8" x2="211" y2="325.8"/><line class="cls-14" x1="350.38" y1="352.8" x2="381" y2="352.8"/><path class="cls-14" d="m263.38,325.8s7.84-1.57,7.98,5.56,0,16.1,0,16.1c0,0,1.59,5.63,5.36,5.33s21.28,0,21.28,0"/><path class="cls-14" d="m263.38,324.66s7.84,1.57,7.98-5.56,0-16.1,0-16.1c0,0,1.59-5.63,5.36-5.33s21.28,0,21.28,0"/><text class="cls-4" transform="translate(114.92 171.33)"><tspan x="0" y="0">Origin time</tspan></text><text class="cls-4" transform="translate(530.92 184.33)"><tspan class="cls-57" x="0" y="0">E</tspan><tspan class="cls-47" x="4.8" y="0">v</tspan><tspan class="cls-49" x="8.74" y="0">e</tspan><tspan class="cls-47" x="13.26" y="0">n</tspan><tspan x="17.49" y="0">t ID</tspan></text><text class="cls-3" transform="translate(530.92 199.33)"><tspan x="0" y="0">2</tspan><tspan class="cls-66" x="4.34" y="0">5</tspan><tspan class="cls-60" x="8.72" y="0">1</tspan><tspan class="cls-65" x="11.03" y="0">3</tspan><tspan x="15.61" y="0">5</tspan><tspan class="cls-26" x="20.15" y="0">6</tspan><tspan x="24.86" y="0">2</tspan><tspan class="cls-39" x="29.19" y="0">3</tspan><tspan class="cls-65" x="33.78" y="0">8</tspan><tspan x="38.62" y="0">3_</tspan><tspan class="cls-51" x="47.14" y="0">E</tspan><tspan x="52.19" y="0">V_</tspan><tspan class="cls-8" x="61.48" y="0">L</tspan><tspan x="66.52" y="0">ANC_A</tspan></text><text class="cls-6" transform="translate(539.92 311.9)"><tspan class="cls-70" x="0" y="0">0</tspan><tspan x="3.92" y="0">1:</tspan><tspan class="cls-65" x="6.84" y="0">3</tspan><tspan x="10.27" y="0">3:0</tspan><tspan class="cls-50" x="18.92" y="0">6</tspan><tspan class="cls-70" x="22.44" y="0">.</tspan><tspan class="cls-50" x="23.58" y="0">5</tspan><tspan x="26.85" y="0">23</tspan></text><text class="cls-6" transform="translate(579.92 311.9)"><tspan x="0" y="0">1</tspan><tspan class="cls-29" x="1.73" y="0">.</tspan><tspan class="cls-31" x="2.77" y="0">4</tspan><tspan x="6.37" y="0">5</tspan></text><text class="cls-6" transform="translate(579.92 323.9)"><tspan x="0" y="0">1</tspan><tspan class="cls-70" x="1.73" y="0">.</tspan><tspan class="cls-21" x="2.87" y="0">3</tspan><tspan x="6.27" y="0">1</tspan></text><text class="cls-6" transform="translate(579.92 335.9)"><tspan x="0" y="0">1</tspan><tspan class="cls-23" x="1.73" y="0">.</tspan><tspan x="2.75" y="0">94</tspan></text><text class="cls-6" transform="translate(601.92 311.9)"><tspan x="0" y="0">x</tspan></text><text class="cls-6" transform="translate(601.92 323.9)"><tspan class="cls-27" x="0" y="0">x</tspan><tspan x="3.01" y="0">y</tspan></text><text class="cls-6" transform="translate(601.92 335.9)"><tspan x="0" y="0">z</tspan></text><text class="cls-6" transform="translate(539.92 323.9)"><tspan class="cls-70" x="0" y="0">0</tspan><tspan x="3.92" y="0">1:</tspan><tspan class="cls-65" x="6.84" y="0">3</tspan><tspan x="10.27" y="0">3:0</tspan><tspan class="cls-50" x="18.92" y="0">6</tspan><tspan class="cls-23" x="22.44" y="0">.</tspan><tspan x="23.46" y="0">9</tspan><tspan class="cls-65" x="27.14" y="0">8</tspan><tspan x="30.77" y="0">3</tspan></text><text class="cls-6" transform="translate(539.92 335.9)"><tspan class="cls-70" x="0" y="0">0</tspan><tspan x="3.92" y="0">1:</tspan><tspan class="cls-65" x="6.84" y="0">3</tspan><tspan x="10.27" y="0">3:</tspan><tspan class="cls-48" x="14.95" y="0">0</tspan><tspan class="cls-22" x="18.7" y="0">7</tspan><tspan class="cls-70" x="21.41" y="0">.</tspan><tspan x="22.55" y="0">3</tspan><tspan class="cls-41" x="26.04" y="0">4</tspan><tspan x="29.67" y="0">1</tspan></text><text class="cls-6" transform="translate(579.92 392.9)"><tspan class="cls-50" x="0" y="0">5</tspan><tspan x="3.26" y="0">.23</tspan></text><text class="cls-6" transform="translate(601.92 392.9)"><tspan x="0" y="0">2</tspan></text><text class="cls-6" transform="translate(539.92 392.9)"><tspan class="cls-70" x="0" y="0">0</tspan><tspan x="3.92" y="0">1:</tspan><tspan class="cls-65" x="6.84" y="0">3</tspan><tspan x="10.27" y="0">3:</tspan><tspan class="cls-48" x="14.95" y="0">0</tspan><tspan class="cls-22" x="18.7" y="0">7</tspan><tspan class="cls-70" x="21.41" y="0">.</tspan><tspan x="22.55" y="0">5</tspan><tspan class="cls-21" x="25.96" y="0">4</tspan><tspan x="29.57" y="0">8</tspan></text><text class="cls-6" transform="translate(579.92 403.9)"><tspan class="cls-50" x="0" y="0">5</tspan><tspan class="cls-52" x="3.26" y="0">.</tspan><tspan x="4.12" y="0">15</tspan></text><text class="cls-6" transform="translate(601.92 403.9)"><tspan x="0" y="0">3</tspan></text><text class="cls-6" transform="translate(539.92 403.9)"><tspan class="cls-70" x="0" y="0">0</tspan><tspan x="3.92" y="0">1:</tspan><tspan class="cls-65" x="6.84" y="0">3</tspan><tspan x="10.27" y="0">3:0</tspan><tspan class="cls-29" x="18.92" y="0">8</tspan><tspan class="cls-68" x="22.45" y="0">.</tspan><tspan class="cls-53" x="23.59" y="0">3</tspan><tspan class="cls-21" x="27.02" y="0">3</tspan><tspan x="30.42" y="0">1</tspan></text><text class="cls-6" transform="translate(579.92 415.9)"><tspan class="cls-50" x="0" y="0">5</tspan><tspan class="cls-70" x="3.26" y="0">.</tspan><tspan class="cls-21" x="4.4" y="0">3</tspan><tspan x="7.8" y="0">2</tspan></text><text class="cls-6" transform="translate(601.92 415.9)"><tspan x="0" y="0">5</tspan></text><text class="cls-6" transform="translate(539.92 415.9)"><tspan class="cls-70" x="0" y="0">0</tspan><tspan x="3.92" y="0">1:</tspan><tspan class="cls-65" x="6.84" y="0">3</tspan><tspan x="10.27" y="0">3:</tspan><tspan class="cls-70" x="14.95" y="0">0</tspan><tspan class="cls-23" x="18.87" y="0">9</tspan><tspan class="cls-68" x="22.37" y="0">.</tspan><tspan x="23.51" y="0">5</tspan><tspan class="cls-31" x="26.92" y="0">4</tspan><tspan x="30.53" y="0">2</tspan></text><text class="cls-4" transform="translate(530.92 234.33)"><tspan x="0" y="0">Origin Time</tspan></text><text class="cls-4" transform="translate(531.92 291.33)"><tspan x="0" y="0">Pic</tspan><tspan class="cls-39" x="10.88" y="0">k</tspan><tspan x="14.77" y="0">s</tspan></text><text class="cls-4" transform="translate(530.92 371.33)"><tspan class="cls-65" x="0" y="0">M</tspan><tspan x="6.7" y="0">agnitude Calcul</tspan><tspan class="cls-47" x="61.37" y="0">a</tspan><tspan x="65.34" y="0">tion</tspan></text><text class="cls-5" transform="translate(235.92 170.61)"><tspan class="cls-40" x="0" y="0">M</tspan><tspan x="5.86" y="0">agnitude</tspan></text><text class="cls-4" transform="translate(304.92 171.33)"><tspan x="0" y="0">L</tspan><tspan class="cls-66" x="4.83" y="0">a</tspan><tspan x="8.8" y="0">titude</tspan></text><text class="cls-4" transform="translate(348.92 171.33)"><tspan class="cls-55" x="0" y="0">L</tspan><tspan x="4.61" y="0">ongitude</tspan></text><text class="cls-4" transform="translate(411.92 171.33)"><tspan x="0" y="0">De</tspan><tspan class="cls-45" x="10.27" y="0">p</tspan><tspan x="14.7" y="0">th</tspan></text><text class="cls-3" transform="translate(114.92 187.33)"><tspan class="cls-37" x="0" y="0">F</tspan><tspan x="4.2" y="0">eb </tspan><tspan class="cls-13" x="15.15" y="0">8</tspan><tspan x="19.86" y="0">, 2</tspan><tspan class="cls-55" x="27.5" y="0">0</tspan><tspan x="32.57" y="0">2</tspan><tspan class="cls-28" x="36.9" y="0">3</tspan><tspan x="41.35" y="0">, </tspan><tspan class="cls-32" x="44.66" y="0">0</tspan><tspan class="cls-49" x="49.88" y="0">1:</tspan><tspan class="cls-20" x="53.78" y="0">3</tspan><tspan x="58.3" y="0">2:</tspan><tspan class="cls-61" x="64.22" y="0">5</tspan><tspan x="68.58" y="0">2 U</tspan><tspan class="cls-67" x="80.26" y="0">T</tspan><tspan x="84.78" y="0">C</tspan></text><text class="cls-3" transform="translate(530.92 246.33)"><tspan x="0" y="0">2</tspan><tspan class="cls-55" x="4.34" y="0">0</tspan><tspan x="9.4" y="0">23-</tspan><tspan class="cls-55" x="21.97" y="0">0</tspan><tspan x="27.03" y="0">2-08t</tspan><tspan class="cls-32" x="48.07" y="0">0</tspan><tspan class="cls-49" x="53.3" y="0">1:</tspan><tspan class="cls-20" x="57.19" y="0">3</tspan><tspan x="61.72" y="0">2:</tspan><tspan class="cls-61" x="67.64" y="0">5</tspan><tspan x="71.99" y="0">2</tspan><tspan class="cls-32" x="76.33" y="0">.</tspan><tspan class="cls-55" x="77.85" y="0">3</tspan><tspan x="82.28" y="0">73Z</tspan></text><text class="cls-3" transform="translate(235.92 187.33)"><tspan class="cls-57" x="0" y="0">4</tspan><tspan class="cls-39" x="4.82" y="0">.</tspan><tspan x="6.34" y="0">3</tspan></text><text class="cls-3" transform="translate(304.92 187.33)"><tspan class="cls-57" x="0" y="0">2</tspan><tspan class="cls-22" x="4.21" y="0">7</tspan><tspan class="cls-28" x="7.82" y="0">.</tspan><tspan class="cls-65" x="9.19" y="0">8</tspan><tspan x="14.03" y="0">5</tspan></text><text class="cls-3" transform="translate(348.92 187.33)"><tspan x="0" y="0">8</tspan><tspan class="cls-57" x="4.92" y="0">4</tspan><tspan class="cls-55" x="9.74" y="0">.</tspan><tspan x="11.1" y="0">08</tspan></text><text class="cls-3" transform="translate(411.92 187.33)"><tspan x="0" y="0">10</tspan></text><rect class="cls-19" x="532" y="301" width="103" height="46" rx="7.99" ry="7.99"/><rect class="cls-19" x="532.5" y="381.5" width="103" height="46" rx="7.99" ry="7.99"/></g></g></g></svg>