<?xml version="1.0" encoding="UTF-8"?>
<svg id="Layer_2" data-name="Layer 2" xmlns="http://www.w3.org/2000/svg" viewBox="0 0 152.82 125.38">
  <defs>
    <style>
      .cls-1, .cls-2, .cls-3 {
        fill: #fff;
      }

      .cls-2, .cls-4, .cls-3, .cls-5, .cls-6 {
        stroke-miterlimit: 10;
      }

      .cls-2, .cls-4, .cls-3, .cls-6 {
        stroke: #000;
      }

      .cls-2, .cls-6 {
        stroke-width: .25px;
      }

      .cls-7 {
        fill: #5787ff;
      }

      .cls-4 {
        fill: #3a3a3a;
      }

      .cls-8 {
        isolation: isolate;
        opacity: .1;
      }

      .cls-5 {
        fill: none;
        stroke: #e42774;
      }

      .cls-6 {
        fill: #515151;
      }
    </style>
  </defs>
  <g id="Layer_3" data-name="Layer 3">
    <path class="cls-5" d="m57.19,39.49s-1.86,0-1.86,1.86.22,2.56,1.36,2.56,1.74.31,1.89-.62"/>
    <path class="cls-7" d="m64.43,32.3h0c.48.19.77.59.64.88l-16.46,37.66c-.13.29-.62.37-1.1.18h0c-.48-.19-.77-.59-.64-.88l16.46-37.66c.13-.29.62-.37,1.1-.18Z"/>
    <path class="cls-7" d="m67.22,38.83h0c.48.19.77.59.64.88l-12.45,28.49c-.13.29-.62.37-1.1.18h0c-.48-.19-.77-.59-.64-.88l12.45-28.49c.13-.29.62-.37,1.1-.18Z"/>
    <path class="cls-7" d="m68.66,48.41h0c.48.19.77.59.64.88l-5.77,13.21c-.13.29-.62.37-1.1.18h0c-.48-.19-.77-.59-.64-.88l5.77-13.21c.13-.29.62-.37,1.1-.18Z"/>
    <path class="cls-7" d="m75.32,46.92h0c.48.19.77.59.64.88l-8.89,20.34c-.13.29-.62.37-1.1.18h0c-.48-.19-.77-.59-.64-.88l8.89-20.34c.13-.29.62-.37,1.1-.18Z"/>
    <path class="cls-7" d="m81.9,44.78h0c.48.19.77.59.64.88l-12.45,28.49c-.13.29-.62.37-1.1.18h0c-.48-.19-.77-.59-.64-.88l12.45-28.49c.13-.29.62-.37,1.1-.18Z"/>
    <path class="cls-7" d="m87.8,44.18h0c.48.19.77.59.64.88l-14.68,33.59c-.13.29-.62.37-1.1.18h0c-.48-.19-.77-.59-.64-.88l14.68-33.59c.13-.29.62-.37,1.1-.18Z"/>
    <path class="cls-7" d="m95.6,39.24h0c.48.19.77.59.64.88l-20.69,47.34c-.13.29-.62.37-1.1.18h0c-.48-.19-.77-.59-.64-.88l20.69-47.34c.13-.29.62-.37,1.1-.18Z"/>
    <path class="cls-7" d="m97.49,47.81h0c.48.19.77.59.64.88l-14.9,34.1c-.13.29-.62.37-1.1.18h0c-.48-.19-.77-.59-.64-.88l14.9-34.1c.13-.29.62-.37,1.1-.18Z"/>
    <path class="cls-7" d="m101.05,52.55h0c.48.19.77.59.64.88l-12.45,28.49c-.13.29-.62.37-1.1.18h0c-.48-.19-.77-.59-.64-.88l12.45-28.49c.13-.29.62-.37,1.1-.18Z"/>
    <ellipse class="cls-8" cx="76.41" cy="87.78" rx="34.09" ry="78.01" transform="translate(-26.35 142.42) rotate(-76.96)"/>
  </g>
  <g id="Layer_2-2" data-name="Layer 2">
    <path class="cls-4" d="m46.82,18.57s-.54.32-1.04.76c-.89.79-.79,1.59-.79,1.59l.62,50.42s-.11.65.43,1.85c.54,1.2,2.32,3.3,2.32,3.3l36,22.85s.17.17,1.07.11,1.58-.44,1.58-.44l12.95-6.84s.85-.6,1.55-1.56.88-2.15.88-2.15l.47-52.04s.04-1.55-.74-3.05c-.95-1.82-2.98-2.76-2.98-2.76L63.47,13.63s-.55-.25-.87-.25-.99.11-.99.11l-14.79,5.08Z"/>
    <path class="cls-6" d="m48.09,20.56s-.72-.19-1.35,0c-1.2.36-1.2,1.17-1.2,1.17l.93,49.76s.15,1.15,1.07,2.38,1.47,1.78,1.47,1.78l34.77,21.79s.24.21.71.19,1.33-1.02,1.33-1.02l.14-53.83s0-1.75-.89-2.77c-.91-1.05-2.19-1.99-2.19-1.99l-34.79-17.46Z"/>
    <ellipse cx="91.63" cy="48.73" rx=".46" ry=".42" transform="translate(-12.03 43.65) rotate(-25.2)"/>
    <ellipse cx="93.5" cy="49.73" rx=".46" ry=".42" transform="translate(-12.27 44.54) rotate(-25.2)"/>
    <ellipse cx="95.47" cy="47.09" rx=".46" ry=".42" transform="translate(-10.96 45.13) rotate(-25.2)"/>
    <ellipse cx="91.63" cy="52.27" rx=".46" ry=".42" transform="translate(-13.53 43.99) rotate(-25.2)"/>
    <ellipse cx="93.5" cy="53.26" rx=".46" ry=".42" transform="translate(-13.78 44.88) rotate(-25.2)"/>
    <ellipse cx="95.47" cy="50.63" rx=".46" ry=".42" transform="translate(-12.47 45.47) rotate(-25.2)"/>
    <ellipse cx="91.63" cy="55.89" rx=".46" ry=".42" transform="translate(-15.07 44.33) rotate(-25.2)"/>
    <ellipse cx="93.5" cy="56.88" rx=".46" ry=".42" transform="translate(-15.32 45.22) rotate(-25.2)"/>
    <ellipse cx="95.47" cy="54.24" rx=".46" ry=".42" transform="translate(-14.01 45.81) rotate(-25.2)"/>
    <ellipse cx="91.63" cy="59.42" rx=".46" ry=".42" transform="translate(-16.58 44.67) rotate(-25.2)"/>
    <ellipse cx="93.5" cy="60.42" rx=".46" ry=".42" transform="translate(-16.83 45.56) rotate(-25.2)"/>
    <ellipse cx="95.47" cy="57.78" rx=".46" ry=".42" transform="translate(-15.52 46.15) rotate(-25.2)"/>
    <ellipse cx="91.63" cy="63.01" rx=".46" ry=".42" transform="translate(-18.11 45.01) rotate(-25.2)"/>
    <ellipse cx="93.5" cy="64" rx=".46" ry=".42" transform="translate(-18.35 45.9) rotate(-25.2)"/>
    <ellipse cx="95.47" cy="61.36" rx=".46" ry=".42" transform="translate(-17.04 46.49) rotate(-25.2)"/>
    <ellipse cx="91.63" cy="66.54" rx=".46" ry=".42" transform="translate(-19.61 45.35) rotate(-25.2)"/>
    <ellipse cx="93.5" cy="67.54" rx=".46" ry=".42" transform="translate(-19.86 46.24) rotate(-25.2)"/>
    <ellipse cx="95.47" cy="64.9" rx=".46" ry=".42" transform="translate(-18.55 46.83) rotate(-25.2)"/>
    <ellipse cx="91.63" cy="70.16" rx=".46" ry=".42" transform="translate(-21.15 45.69) rotate(-25.2)"/>
    <ellipse cx="93.5" cy="71.15" rx=".46" ry=".42" transform="translate(-21.4 46.58) rotate(-25.2)"/>
    <ellipse cx="95.47" cy="68.52" rx=".46" ry=".42" transform="translate(-20.09 47.17) rotate(-25.2)"/>
    <ellipse cx="91.63" cy="73.7" rx=".46" ry=".42" transform="translate(-22.66 46.03) rotate(-25.2)"/>
    <ellipse cx="93.5" cy="74.69" rx=".46" ry=".42" transform="translate(-22.9 46.92) rotate(-25.2)"/>
    <ellipse cx="95.47" cy="72.05" rx=".46" ry=".42" transform="translate(-21.59 47.51) rotate(-25.2)"/>
    <ellipse cx="91.63" cy="77.01" rx=".46" ry=".42" transform="translate(-24.07 46.34) rotate(-25.2)"/>
    <ellipse cx="95.47" cy="75.37" rx=".46" ry=".42" transform="translate(-23 47.82) rotate(-25.2)"/>
    <path class="cls-3" d="m93.98,31.85V3.39s-.17-2.89-2.65-2.89-2.65,2.78-2.65,2.78v27.7"/>
    <path class="cls-2" d="m88.72,30.85s1.18,1.79,2.37,1.99c1.94.32,2.94-1.15,2.94-1.15"/>
  </g>
  <g id="Layer_5" data-name="Layer 5">
    <g id="Layer_2-3" data-name="Layer 2">
      <g id="Layer_2-2" data-name="Layer 2-2">
        <path class="cls-1" d="m68.68,58.12h0c-.49-.09-.86.33-.93,1-.09.95.32,1.99.98,2.51.08.03.12.11.2.09.2.09.37.04.54,0,.22-.08.37-.37.39-.65.06-.67-.08-1.43-.39-2.08-.17-.42-.47-.78-.8-.86Zm.57,2.86c-.09.08-.25,0-.33-.02-.43-.36-.7-1.05-.64-1.67.03-.28.21-.49.42-.46.16.07.35.27.46.48.21.44.33.95.28,1.46-.05.09-.14.17-.19.21h0Z"/>
        <path class="cls-1" d="m75.97,52.84c-.06-.2-.22-.33-.35-.27h0l-3.16,1.27-1.29,2.65c-.08-.09-.11-.16-.19-.25l.87-2.65,2.26-3.28c.1-.13.08-.37-.03-.54-.11-.16-.28-.18-.37-.04l-2.27,3.34-.87,2.65c-1-.95-2.19-1.16-3.2-.66l-.05.04c-.22.14-.4.29-.55.58-1.25-1.81-2.85-3.07-4.52-3.54-1.14-.37-2.24-.6-3.37-.61-.25,0-.5-.04-.83-.06-1.16-.14-2.79-.54-2.79-.54l-.53-.11.32.66c.5.97,1.08,1.91,1.71,2.7h0c.42,2.21,1.36,4.24,2.65,5.71l-.08.84-1.67,2.26c-.1.13-.08.37.03.54.04.07.08.09.16.12s.17.01.22-.08l1.76-2.39.07-.78c.77.73,1.6,1.26,2.44,1.62l.36.15c.32.14.61.2.89.32l.4,3.83c.02.18.09.33.22.38l.08.03c.13,0,.22-.14.2-.38h0l-.38-3.65c.61.2,1.19.27,1.76.34l.43,2.16c.03.13.1.27.22.33l.12.05c.13-.06.23-.19.17-.45l-.39-2.08c.33.02.68-.12.95-.35h0c.68,1.27,1.62,2.32,2.66,2.82.52.22,1.02.2,1.47-.07.5-.43.82-1.16.94-2.04.29-1.85.07-3.98-.67-5.86-.07-.15-.14-.29-.17-.42l1.29-2.65,2.99-1.23c.08.03.14-.17.08-.37h0Zm-20.11-1.03c.57.13,1.52.29,2.26.43.37.04.62.03.87.08,1.08.05,2.19.23,3.25.56,1.55.42,3.03,1.58,4.21,3.3-.2.38-.32.79-.41,1.28-.08.37-.07.78-.07,1.19-.58-.48-1.17-.9-1.77-1.21-.68-.35-1.81-.77-3.34-1.36l-1.53-.59c-.8-.34-1.54-.94-2.18-1.74-.45-.6-.89-1.25-1.28-1.94Zm8.18,10.09l-.53-.17-.77-.27c-.97-.35-1.92-.93-2.76-1.81l-.49-.56c-.9-1.14-1.6-2.54-2-4.1.57.59,1.16,1.01,1.81,1.23l1.57.61c1.45.56,2.63.94,3.26,1.32.67.4,1.34.86,2,1.43.09.39.18.77.35,1.14.17.42.38.86.55,1.28-.14.17-.68.58-3-.11Zm7.86,1.24c-.06.67-.32,1.26-.69,1.62-.84.52-2.83-.5-4.32-4.33-.76-1.77-.44-3.85.68-4.65h0c.88-.5,1.98-.21,2.89.76l.08.09c.15.18.3.42.44.65l.04.07c.11.16.18.36.29.53.68,1.68.88,3.57.6,5.25Z"/>
      </g>
    </g>
  </g>
</svg>