<?xml version="1.0" encoding="UTF-8"?>
<svg id="Layer_2" data-name="Layer 2" xmlns="http://www.w3.org/2000/svg" viewBox="0 0 198.38 128.37">
  <defs>
    <style>
      .cls-1 {
        stroke-dasharray: 0 0 2.06 2.06;
      }

      .cls-1, .cls-2, .cls-3, .cls-4, .cls-5 {
        stroke-miterlimit: 10;
      }

      .cls-1, .cls-2, .cls-4, .cls-5 {
        fill: none;
        stroke: #fff;
      }

      .cls-6 {
        fill: #fff;
      }

      .cls-7 {
        fill: #f59d52;
      }

      .cls-8 {
        fill: #e42774;
      }

      .cls-9 {
        fill: #5787ff;
      }

      .cls-3 {
        fill: #3a3a3a;
        stroke: #000;
      }

      .cls-4 {
        stroke-dasharray: 0 0 1.99 1.99;
      }

      .cls-10 {
        fill: #515151;
      }

      .cls-11 {
        isolation: isolate;
        opacity: .1;
      }

      .cls-12 {
        fill: #35e1ff;
      }

      .cls-5 {
        stroke-dasharray: 0 2;
      }
    </style>
  </defs>
  <g id="Layer_4" data-name="Layer 4">
    <path class="cls-11" d="m198.37,89.07c.72,19.52-43.09,37.02-97.87,39.09C45.75,130.24.77,116.12,0,96.61c-.02-.44-.01-.88.02-1.32,1.3-19.58,46.76-36.55,101.52-37.9,53.33-1.32,96.1,12.68,96.82,31.69Z"/>
  </g>
  <g id="Layer_3" data-name="Layer 3">
    <path class="cls-3" d="m31.77,78.43c.19-1.2,0-71.87,0-71.87,0,0,0-6.06,4.92-6.06h127.33s5.12.82,5.12,5.12v72.82H31.77Z"/>
    <polyline class="cls-3" points="31.77 78.43 14.34 89.81 182.09 89.81 169.14 78.43"/>
    <polyline class="cls-3" points="14.34 89.81 15.83 92.71 179.94 92.71 182.09 89.81"/>
    <rect class="cls-10" x="35.31" y="8.77" width="90.95" height="64.4"/>
    <rect class="cls-10" x="129.73" y="8.77" width="35.85" height="37.96"/>
    <rect class="cls-10" x="129.73" y="49.95" width="35.85" height="23.22"/>
    <rect class="cls-7" x="40.84" y="25.82" width="22.48" height="8.72" rx="1.2" ry="1.2"/>
    <rect class="cls-12" x="64.9" y="42.37" width="22.48" height="8.72" rx="1.2" ry="1.2"/>
    <rect class="cls-9" x="90.67" y="27.75" width="22.48" height="8.72" rx="1.2" ry="1.2"/>
    <path d="m123.2,57.96c.25,0,.45.2.45.45v6.32c0,.25-.2.45-.45.45h-20.08c-.25,0-.45-.2-.45-.45v-6.32c0-.25.2-.45.45-.45h20.08m0-.75h-20.08c-.66,0-1.2.54-1.2,1.2v6.32c0,.66.54,1.2,1.2,1.2h20.08c.66,0,1.2-.54,1.2-1.2v-6.32c0-.66-.54-1.2-1.2-1.2h0Z"/>
    <g>
      <path class="cls-2" d="m48.54,34.54s.04.37.13.99"/>
      <path class="cls-1" d="m49.04,37.56c.41,1.95,1.11,4.48,2.25,6.44,2.2,3.76,8.38,3.79,11.6,3.53"/>
      <path class="cls-2" d="m63.91,47.41c.62-.07.99-.14.99-.14"/>
    </g>
    <g>
      <path class="cls-2" d="m90.55,30.32s-.38.04-.99.13"/>
      <path class="cls-4" d="m87.61,30.77c-1.72.33-3.88.88-5.56,1.71-3.13,1.55-3.3,5.53-3.08,7.95"/>
      <path class="cls-2" d="m79.09,41.42c.09.61.18.98.18.98"/>
    </g>
    <path class="cls-5" d="m100.08,36.47s10.14,3.7,10.71,8.91.85,11.83.85,11.83"/>
    <line class="cls-2" x1="133.96" y1="15.47" x2="160.74" y2="15.47"/>
    <line class="cls-2" x1="133.96" y1="19.64" x2="160.74" y2="19.64"/>
    <line class="cls-2" x1="133.96" y1="23.81" x2="160.74" y2="23.81"/>
    <line class="cls-2" x1="133.96" y1="28.36" x2="160.74" y2="28.36"/>
    <line class="cls-2" x1="150.64" y1="69.66" x2="160.74" y2="69.66"/>
    <path class="cls-8" d="m113.15,63.06c1.93,0,1.93-3,0-3s-1.93,3,0,3h0Z"/>
  </g>
  <g id="Layer_5" data-name="Layer 5">
    <g id="Layer_2-2" data-name="Layer 2">
      <g id="Layer_2-2" data-name="Layer 2-2">
        <path class="cls-6" d="m151.05,59.74h0c-.29.05-.49.29-.49.59,0,.42.29.79.71.88.05,0,.07.02.12,0,.12,0,.22-.05.32-.1.12-.07.2-.22.2-.34,0-.29-.12-.59-.34-.81-.12-.15-.32-.25-.52-.22Zm.49,1.1s-.15.05-.2.05c-.27-.07-.47-.32-.47-.59,0-.12.1-.25.22-.27.1,0,.22.05.29.12.15.15.25.34.25.56-.02.05-.07.1-.1.12h0Z"/>
        <path class="cls-6" d="m155.05,56.2c-.05-.07-.15-.1-.22-.05h0l-1.79,1.1-.61,1.35s-.07-.05-.12-.07l.37-1.28,1.15-1.79c.05-.07.02-.17-.05-.22-.07-.05-.17-.02-.22.05l-1.15,1.82-.37,1.28c-.64-.22-1.35-.1-1.91.29l-.02.02c-.12.1-.22.2-.29.34-.83-.54-1.84-.79-2.85-.69-.69.05-1.35.15-2.01.34-.15.05-.29.07-.49.12-.69.15-1.67.27-1.67.27l-.32.05.22.22c.34.32.74.61,1.15.83h0c.37.86,1.03,1.55,1.87,1.94v.37l-.86,1.25c-.05.07-.02.17.05.22.02.02.05.02.1.02s.1-.02.12-.07l.91-1.33v-.34c.49.17,1.01.25,1.52.25h.22c.2,0,.37-.02.54-.02l.44,1.55c.02.07.07.12.15.12h.05c.07-.02.12-.1.1-.2h0l-.42-1.47c.37-.02.71-.1,1.06-.17l.37.83s.07.1.15.1h.07c.07-.05.12-.12.07-.22l-.34-.81c.2-.05.39-.17.54-.32h0c.47.42,1.08.69,1.72.71.32,0,.61-.1.86-.29.27-.27.42-.64.44-1.03.07-.83-.17-1.69-.71-2.36-.05-.05-.1-.1-.12-.15l.61-1.35,1.69-1.06s.07-.1.02-.17h0Zm-11.88,3.17c.34-.05.91-.15,1.35-.22.22-.05.37-.1.52-.12.64-.17,1.3-.29,1.94-.34.93-.1,1.87.12,2.65.64-.1.2-.15.39-.17.61-.02.17,0,.34.02.52-.37-.1-.74-.17-1.1-.2-.42-.02-1.1,0-2.04.02l-.93.02c-.49,0-.96-.12-1.37-.34-.29-.17-.59-.37-.86-.59Zm5.35,2.8l-.32.02-.47.02c-.59.02-1.18-.05-1.72-.27l-.32-.15c-.59-.32-1.08-.79-1.4-1.37.37.15.74.22,1.13.2l.96-.02c.88-.02,1.6-.07,1.99-.02.42.05.83.12,1.25.25.07.15.15.29.27.42.12.15.27.29.39.44-.07.1-.37.37-1.77.49Zm4.69-.88c0,.29-.12.59-.32.81-.47.37-1.69.29-2.77-1.06-.54-.61-.47-1.55.15-2.09h0c.49-.37,1.15-.44,1.74-.2l.05.02c.1.05.2.12.29.2l.02.02c.07.05.12.12.2.17.49.59.71,1.35.64,2.11Z"/>
      </g>
    </g>
  </g>
</svg>