<?xml version="1.0" encoding="UTF-8"?><svg xmlns="http://www.w3.org/2000/svg" xmlns:xlink="http://www.w3.org/1999/xlink" viewBox="0 0 751 500"><defs><style>.cls-1{fill:#fff;}.cls-2{fill:#49ae48;}.cls-3{stroke:#3578e5;}.cls-3,.cls-4,.cls-5,.cls-6,.cls-7,.cls-8{stroke-miterlimit:10;}.cls-3,.cls-5,.cls-6,.cls-7,.cls-8{fill:none;}.cls-9,.cls-10{opacity:.5;}.cls-4{fill:#1e1e1e;stroke:#000;}.cls-11{isolation:isolate;}.cls-12{fill:#001628;}.cls-13{filter:url(#drop-shadow-1);}.cls-14{fill:#333;}.cls-15{fill:#f9fbfc;}.cls-5,.cls-8{stroke:#f9fbfc;}.cls-16{fill:#3578e5;}.cls-17{fill:#e73555;}.cls-6{stroke:#f40f00;}.cls-18{opacity:.49;}.cls-19{fill:#fecb2f;}.cls-10{fill:#1f6485;mix-blend-mode:multiply;}.cls-20{fill:#6d6d6d;}.cls-7{stroke:#0c3066;}.cls-8{opacity:.12;}</style><filter id="drop-shadow-1" filterUnits="userSpaceOnUse"><feOffset dx="6" dy="5"/><feGaussianBlur result="blur" stdDeviation="2"/><feFlood flood-color="#50107a" flood-opacity=".3"/><feComposite in2="blur" operator="in"/><feComposite in="SourceGraphic"/></filter></defs><g class="cls-11"><g id="Layer_2"><g id="Background"><rect class="cls-4" x=".5" y=".5" width="750" height="499"/></g><g id="Objects"><g><g class="cls-9"><path class="cls-10" d="m646.96,101.36H110.19c-4.71,0-8.52,3.81-8.52,8.52v332.74h553.81V109.88c0-4.71-3.81-8.52-8.52-8.52Z"/></g><g class="cls-13"><rect class="cls-12" x="95" y="147" width="417" height="288.92"/><rect class="cls-12" x="512" y="147" width="136" height="288.92"/><rect class="cls-12" x="95" y="113.92" width="553" height="33.08"/><g><path class="cls-14" d="m101.75,94.66h539.83c3.73,0,6.75,3.03,6.75,6.75v12.57H95v-12.57c0-3.73,3.03-6.75,6.75-6.75Z"/><path class="cls-17" d="m109.84,104.32c0-2.13,1.73-3.86,3.86-3.86s3.86,1.73,3.86,3.86-1.73,3.86-3.86,3.86-3.86-1.73-3.86-3.86Z"/><circle class="cls-19" cx="130.82" cy="104.32" r="3.86"/><path class="cls-2" d="m144.09,104.32c0-2.13,1.73-3.86,3.86-3.86s3.86,1.73,3.86,3.86-1.73,3.86-3.86,3.86-3.86-1.73-3.86-3.86Z"/></g></g></g><g id="Layer_2-2"><g id="Layer_2-2"><path class="cls-1" d="m131.52,129.52h0c-.61.09-1.06.62-1.04,1.24,0,.9.62,1.68,1.5,1.88.08.02.16.03.24.03.25,0,.49-.08.69-.23.24-.17.4-.45.43-.75.02-.65-.24-1.27-.7-1.71-.29-.31-.7-.48-1.12-.46Zm1.04,2.36c-.13.09-.29.13-.44.1-.57-.14-.98-.65-.97-1.24-.02-.28.19-.53.47-.55.23,0,.45.09.61.26.32.3.5.73.49,1.17-.02.11-.09.21-.2.26h.04Z"/><path class="cls-1" d="m139.98,122.07c-.09-.16-.3-.21-.46-.11,0,0,0,0,0,0l-3.76,2.34-1.32,2.87c-.08-.06-.17-.11-.25-.17l.76-2.71,2.43-3.78c.1-.16.05-.36-.1-.47-.16-.1-.36-.05-.47.1l-2.46,3.82-.77,2.73c-1.36-.46-2.86-.22-4.03.62l-.07.05c-.24.2-.45.44-.63.7-1.78-1.15-3.89-1.66-6-1.45-1.43.09-2.85.33-4.23.73-.32.09-.63.18-1.04.26-1.46.3-3.51.58-3.53.58l-.69.09.48.48c.73.7,1.55,1.29,2.44,1.77h0c.77,1.8,2.15,3.26,3.91,4.11v.79l-1.8,2.64c-.1.16-.06.36.09.47.06.04.12.06.19.06.11,0,.22-.06.28-.15l1.92-2.81v-.71c1.03.36,2.11.53,3.2.52h.44c.41,0,.8-.04,1.16-.06l.95,3.26c.04.14.17.24.32.24.03,0,.06,0,.09,0,.18-.05.28-.23.23-.41,0,0,0,0,0,0l-.9-3.11c.76-.07,1.5-.19,2.24-.36l.77,1.76c.05.12.17.2.31.2.05,0,.09,0,.14-.03.17-.08.24-.28.17-.45l-.74-1.69c.43-.12.83-.36,1.15-.68v-.03c1,.91,2.28,1.44,3.63,1.51.66.02,1.3-.2,1.82-.6.58-.58.91-1.36.91-2.18.18-1.79-.37-3.57-1.51-4.96-.09-.1-.19-.2-.28-.28l1.31-2.84,3.59-2.22c.16-.09.21-.3.12-.45,0,0,0,0,0-.01Zm-25.11,6.69c.74-.11,1.91-.29,2.85-.48.45-.09.78-.19,1.1-.28,1.34-.38,2.72-.61,4.11-.7,1.96-.19,3.92.28,5.58,1.35-.19.41-.31.85-.34,1.31-.03.36,0,.72.07,1.07-.76-.2-1.54-.34-2.33-.44-.88-.06-2.31,0-4.29.07l-1.99.07c-1.02,0-2.02-.25-2.91-.75-.66-.34-1.28-.75-1.86-1.23Zm11.32,5.91l-.69.06-.99.05c-1.24.07-2.47-.13-3.63-.58l-.67-.31c-1.24-.67-2.27-1.68-2.95-2.92.76.31,1.57.45,2.39.44l2.03-.07c1.89-.07,3.37-.13,4.21-.07.89.11,1.77.28,2.64.52.14.33.34.63.57.9.27.33.55.64.85.93-.17.22-.83.79-3.76,1.06Zm9.92-1.88c0,.63-.23,1.24-.66,1.71-1,.79-3.55.62-5.85-2.23-1.12-1.3-.97-3.26.33-4.38,0,0,0,0,.01,0,1.06-.78,2.45-.94,3.66-.43l.12.06c.22.12.43.26.63.42l.03.03c.14.12.27.25.39.38,1,1.25,1.48,2.85,1.34,4.45Z"/></g></g></g><g id="graphics"><line class="cls-7" x1="95" y1="220.5" x2="512" y2="220.5"/><line class="cls-7" x1="95" y1="147.5" x2="648" y2="147.5"/><line class="cls-7" x1="512.51" y1="147" x2="512.03" y2="435.92"/><g><path class="cls-15" d="m545,129.44c0,.71.43,1.15,1.12,1.15.48,0,.86-.22,1.1-.62v-2.94h.59v4.01h-.59v-.46c-.31.36-.74.54-1.25.54-.92,0-1.55-.63-1.55-1.55v-2.53h.58v2.41Z"/><path class="cls-15" d="m548.78,130.1c.37.34.83.54,1.3.54.64,0,1.09-.3,1.09-.72,0-.34-.23-.54-.74-.61l-.7-.1c-.8-.12-1.18-.47-1.18-1.08,0-.67.62-1.17,1.5-1.17.58,0,1.08.17,1.57.53l-.31.4c-.45-.3-.86-.45-1.29-.45-.55,0-.93.27-.93.66,0,.34.22.51.74.59l.7.1c.8.11,1.2.47,1.2,1.09,0,.7-.7,1.22-1.62,1.22-.66,0-1.26-.22-1.69-.62l.36-.38Z"/><path class="cls-15" d="m554.32,131.11c-1.16,0-2.06-.9-2.06-2.08s.87-2.06,1.97-2.06,1.89.91,1.89,2.06v.18h-3.29c.09.79.71,1.38,1.5,1.38.42,0,.83-.14,1.1-.37l.37.39c-.45.34-.92.5-1.5.5Zm-1.46-2.37h2.68c-.1-.71-.66-1.26-1.32-1.26s-1.25.52-1.36,1.26Z"/><path class="cls-15" d="m556.95,127.03h.59v.57c.24-.42.63-.66,1.12-.66.15,0,.26.02.38.06v.54c-.14-.05-.28-.07-.42-.07-.5,0-.87.29-1.08.82v2.74h-.59v-4.01Z"/><path class="cls-15" d="m560.56,129.42c0-.78.6-1.42,1.35-1.42.31,0,.61.11.81.31l.04-.21h.45l-.31,1.54c-.08.38.09.6.45.6.56,0,.98-.58.98-1.34,0-1.22-.99-2.12-2.29-2.12-1.38,0-2.44,1.13-2.44,2.58s1.06,2.46,2.5,2.46c.49,0,.96-.11,1.36-.33l.14.33c-.46.23-.98.36-1.53.36-1.64,0-2.87-1.2-2.87-2.81s1.22-2.95,2.85-2.95c1.5,0,2.66,1.06,2.66,2.45,0,.98-.61,1.71-1.42,1.71-.34,0-.6-.12-.74-.33-.26.23-.56.36-.85.36-.66,0-1.14-.52-1.14-1.21Zm1.24.83c.24,0,.46-.1.65-.28-.02-.11-.02-.23.02-.37l.17-.85c-.15-.23-.42-.37-.73-.37-.5,0-.9.46-.9,1,0,.51.33.86.8.86Z"/><path class="cls-15" d="m565.56,127.03h.59v.44c.3-.34.7-.52,1.17-.52.56,0,1.02.28,1.26.73.33-.49.79-.73,1.38-.73.87,0,1.47.63,1.47,1.55v2.53h-.58v-2.41c0-.71-.4-1.15-1.04-1.15-.44,0-.81.22-1.06.66.02.12.04.24.04.38v2.53h-.58v-2.41c0-.71-.4-1.15-1.03-1.15-.43,0-.78.2-1.02.58v2.98h-.59v-4.01Z"/><path class="cls-15" d="m573.52,131.03l-1.63-4h.66l1.3,3.29,1.4-3.29h.64l-1.99,4.61c-.34.78-.72,1.09-1.36,1.09-.15,0-.29-.02-.38-.04v-.54c.1.02.19.03.34.03.36,0,.61-.2.8-.62l.23-.53Z"/><path class="cls-15" d="m579.31,130.07l.37.4c-.42.41-.98.64-1.55.64-1.14,0-2.04-.91-2.04-2.08s.89-2.08,2.04-2.08c.58,0,1.15.23,1.57.63l-.38.43c-.32-.34-.75-.52-1.18-.52-.82,0-1.46.68-1.46,1.54s.65,1.54,1.47,1.54c.43,0,.82-.17,1.17-.5Z"/><path class="cls-15" d="m582.08,126.95c1.13,0,2.04.91,2.04,2.08s-.9,2.09-2.04,2.09-2.05-.91-2.05-2.09.9-2.08,2.05-2.08Zm1.46,2.08c0-.87-.64-1.55-1.46-1.55s-1.46.68-1.46,1.55.64,1.56,1.46,1.56,1.46-.69,1.46-1.56Z"/><path class="cls-15" d="m584.94,127.03h.59v.44c.3-.34.7-.52,1.17-.52.56,0,1.02.28,1.26.73.33-.49.79-.73,1.38-.73.87,0,1.47.63,1.47,1.55v2.53h-.58v-2.41c0-.71-.4-1.15-1.04-1.15-.44,0-.81.22-1.06.66.02.12.04.24.04.38v2.53h-.58v-2.41c0-.71-.4-1.15-1.03-1.15-.43,0-.78.2-1.02.58v2.98h-.59v-4.01Z"/><path class="cls-15" d="m591.81,127.03h.58v.43c.34-.33.79-.5,1.29-.5,1.13,0,2.01.9,2.01,2.06s-.88,2.07-2.02,2.07c-.47,0-.92-.17-1.28-.46v2.04h-.59v-5.65Zm.59,1.02v1.98c.28.34.74.55,1.23.55.85,0,1.49-.66,1.49-1.54s-.65-1.55-1.49-1.55c-.5,0-.95.21-1.23.56Z"/><path class="cls-15" d="m596.36,129.9c0-.75.62-1.22,1.6-1.22.42,0,.83.1,1.18.27v-.53c0-.64-.37-.97-1.06-.97-.39,0-.78.1-1.26.35l-.22-.46c.58-.28,1.05-.4,1.54-.4,1.02,0,1.58.5,1.58,1.39v2.69h-.58v-.39c-.36.31-.79.46-1.3.46-.88,0-1.48-.49-1.48-1.21Zm1.58.74c.48,0,.87-.14,1.19-.46v-.75c-.33-.22-.7-.32-1.16-.32-.64,0-1.05.3-1.05.78s.42.76,1.02.76Z"/><path class="cls-15" d="m600.7,127.03h.59v.47c.31-.37.74-.55,1.26-.55.91,0,1.54.63,1.54,1.55v2.53h-.58v-2.41c0-.71-.43-1.15-1.12-1.15-.48,0-.86.22-1.1.62v2.95h-.59v-4.01Z"/><path class="cls-15" d="m606.18,131.03l-1.63-4h.66l1.3,3.29,1.4-3.29h.64l-1.99,4.61c-.34.78-.72,1.09-1.36,1.09-.15,0-.29-.02-.38-.04v-.54c.1.02.19.03.34.03.36,0,.61-.2.8-.62l.23-.53Z"/><path class="cls-15" d="m609.28,130.67c0,.22-.18.41-.41.41s-.41-.18-.41-.41.18-.41.41-.41.41.18.41.41Z"/><path class="cls-15" d="m612.98,130.07l.37.4c-.42.41-.98.64-1.55.64-1.14,0-2.04-.91-2.04-2.08s.89-2.08,2.04-2.08c.58,0,1.15.23,1.57.63l-.38.43c-.32-.34-.75-.52-1.18-.52-.82,0-1.46.68-1.46,1.54s.65,1.54,1.47,1.54c.43,0,.82-.17,1.17-.5Z"/><path class="cls-15" d="m615.75,126.95c1.13,0,2.04.91,2.04,2.08s-.9,2.09-2.04,2.09-2.05-.91-2.05-2.09.9-2.08,2.05-2.08Zm1.46,2.08c0-.87-.64-1.55-1.46-1.55s-1.46.68-1.46,1.55.64,1.56,1.46,1.56,1.46-.69,1.46-1.56Z"/><path class="cls-15" d="m618.61,127.03h.59v.44c.3-.34.7-.52,1.17-.52.56,0,1.02.28,1.26.73.33-.49.79-.73,1.38-.73.87,0,1.47.63,1.47,1.55v2.53h-.58v-2.41c0-.71-.4-1.15-1.04-1.15-.44,0-.81.22-1.06.66.02.12.04.24.04.38v2.53h-.58v-2.41c0-.71-.4-1.15-1.03-1.15-.43,0-.78.2-1.02.58v2.98h-.59v-4.01Z"/></g><polyline class="cls-5" points="634.73 128.03 637.31 131 640.09 128.03"/></g><g id="text"><g><path class="cls-20" d="m172.9,133.09c.58.36,1.44.66,2.34.66,1.33,0,2.12-.7,2.12-1.72,0-.95-.54-1.48-1.91-2.01-1.65-.58-2.67-1.44-2.67-2.86,0-1.57,1.3-2.74,3.27-2.74,1.04,0,1.79.24,2.24.49l-.36,1.06c-.33-.18-1-.48-1.92-.48-1.38,0-1.9.83-1.9,1.52,0,.94.61,1.41,2.01,1.95,1.71.66,2.58,1.49,2.58,2.97,0,1.56-1.16,2.91-3.54,2.91-.97,0-2.04-.28-2.58-.65l.33-1.09Z"/><path class="cls-20" d="m181.97,125.34v2.08h1.89v1h-1.89v3.92c0,.9.25,1.41.99,1.41.34,0,.6-.04.76-.09l.06.99c-.25.1-.66.18-1.17.18-.62,0-1.11-.19-1.42-.55-.38-.39-.51-1.04-.51-1.89v-3.96h-1.12v-1h1.12v-1.74l1.29-.35Z"/><path class="cls-20" d="m189.37,134.68l-.11-.92h-.04c-.41.57-1.18,1.08-2.22,1.08-1.47,0-2.22-1.04-2.22-2.08,0-1.75,1.56-2.71,4.36-2.7v-.15c0-.6-.17-1.68-1.65-1.68-.68,0-1.38.21-1.89.54l-.3-.87c.6-.39,1.47-.65,2.38-.65,2.22,0,2.76,1.52,2.76,2.97v2.71c0,.63.03,1.24.12,1.74h-1.2Zm-.2-3.71c-1.44-.03-3.08.23-3.08,1.64,0,.85.57,1.26,1.25,1.26.95,0,1.54-.6,1.75-1.21.04-.13.08-.29.08-.42v-1.26Z"/><path class="cls-20" d="m194.1,125.34v2.08h1.89v1h-1.89v3.92c0,.9.25,1.41.99,1.41.34,0,.6-.04.76-.09l.06.99c-.25.1-.66.18-1.17.18-.62,0-1.11-.19-1.42-.55-.38-.39-.51-1.04-.51-1.89v-3.96h-1.12v-1h1.12v-1.74l1.29-.35Z"/><path class="cls-20" d="m198.95,125.38c.02.45-.31.81-.84.81-.46,0-.79-.36-.79-.81s.35-.82.83-.82.81.36.81.82Zm-1.47,9.3v-7.26h1.32v7.26h-1.32Z"/><path class="cls-20" d="m207.56,130.99c0,2.69-1.86,3.85-3.62,3.85-1.96,0-3.48-1.44-3.48-3.73,0-2.43,1.59-3.85,3.6-3.85s3.5,1.52,3.5,3.73Zm-5.76.08c0,1.59.92,2.79,2.2,2.79s2.21-1.18,2.21-2.82c0-1.23-.61-2.79-2.17-2.79s-2.23,1.44-2.23,2.82Z"/><path class="cls-20" d="m209.22,129.39c0-.75-.01-1.36-.06-1.96h1.17l.08,1.2h.03c.36-.69,1.2-1.37,2.4-1.37,1,0,2.56.6,2.56,3.09v4.33h-1.32v-4.19c0-1.17-.44-2.14-1.68-2.14-.87,0-1.54.61-1.77,1.35-.06.17-.09.39-.09.62v4.36h-1.32v-5.29Z"/><path class="cls-20" d="m217.37,133.33c.39.26,1.08.52,1.74.52.96,0,1.41-.48,1.41-1.08,0-.63-.38-.98-1.35-1.33-1.3-.47-1.92-1.19-1.92-2.06,0-1.17.95-2.13,2.5-2.13.74,0,1.38.21,1.79.45l-.33.96c-.29-.18-.81-.42-1.49-.42-.78,0-1.21.45-1.21.99,0,.6.44.87,1.38,1.23,1.26.48,1.91,1.11,1.91,2.19,0,1.27-.99,2.17-2.71,2.17-.79,0-1.53-.19-2.04-.5l.33-1Z"/></g><g><path class="cls-20" d="m252.59,130.1c-.07-1.41-.17-3.1-.15-4.36h-.04c-.35,1.19-.77,2.44-1.28,3.84l-1.79,4.9h-.99l-1.63-4.81c-.48-1.42-.89-2.73-1.17-3.93h-.03c-.03,1.26-.11,2.96-.2,4.47l-.27,4.33h-1.25l.71-10.11h1.67l1.72,4.89c.42,1.25.76,2.35,1.02,3.4h.04c.26-1.02.62-2.13,1.07-3.4l1.8-4.89h1.67l.63,10.11h-1.27l-.26-4.44Z"/><path class="cls-20" d="m262.75,130.85c0,2.69-1.86,3.85-3.62,3.85-1.96,0-3.48-1.44-3.48-3.73,0-2.43,1.59-3.85,3.6-3.85s3.5,1.52,3.5,3.73Zm-5.76.08c0,1.59.92,2.79,2.2,2.79s2.21-1.18,2.21-2.82c0-1.23-.61-2.79-2.17-2.79s-2.23,1.44-2.23,2.82Z"/><path class="cls-20" d="m270.68,123.89v8.77c0,.65.02,1.38.06,1.88h-1.18l-.06-1.26h-.03c-.4.81-1.29,1.42-2.47,1.42-1.75,0-3.1-1.48-3.1-3.69-.02-2.42,1.48-3.9,3.25-3.9,1.11,0,1.86.52,2.19,1.11h.03v-4.33h1.32Zm-1.32,6.34c0-.17-.02-.39-.06-.56-.19-.84-.92-1.53-1.9-1.53-1.37,0-2.17,1.2-2.17,2.8,0,1.47.72,2.69,2.14,2.69.88,0,1.7-.58,1.93-1.58.04-.18.06-.36.06-.57v-1.26Z"/><path class="cls-20" d="m278.95,132.56c0,.75.01,1.41.06,1.98h-1.17l-.08-1.19h-.03c-.35.58-1.11,1.35-2.4,1.35-1.14,0-2.5-.63-2.5-3.18v-4.25h1.32v4.02c0,1.38.42,2.31,1.62,2.31.88,0,1.5-.61,1.74-1.2.08-.19.12-.44.12-.67v-4.46h1.32v5.28Z"/><path class="cls-20" d="m281.14,123.89h1.32v10.65h-1.32v-10.65Z"/><path class="cls-20" d="m285.42,131.15c.03,1.78,1.17,2.52,2.49,2.52.95,0,1.52-.17,2.01-.38l.22.95c-.46.21-1.26.45-2.42.45-2.23,0-3.57-1.47-3.57-3.66s1.29-3.92,3.4-3.92c2.37,0,3,2.08,3,3.42,0,.27-.03.48-.04.62h-5.1Zm3.87-.95c.01-.84-.35-2.15-1.83-2.15-1.33,0-1.92,1.23-2.03,2.15h3.86Z"/><path class="cls-20" d="m292.01,133.19c.39.26,1.08.52,1.74.52.96,0,1.41-.48,1.41-1.08,0-.63-.38-.98-1.35-1.33-1.3-.47-1.92-1.19-1.92-2.06,0-1.17.95-2.13,2.5-2.13.74,0,1.38.21,1.79.45l-.33.96c-.29-.18-.81-.42-1.49-.42-.78,0-1.21.45-1.21.99,0,.6.44.87,1.38,1.23,1.26.48,1.91,1.11,1.91,2.19,0,1.27-.99,2.17-2.71,2.17-.79,0-1.53-.19-2.04-.5l.33-1Z"/></g><g><path class="cls-16" d="m321.08,124.42c.79-.12,1.74-.21,2.78-.21,1.88,0,3.21.44,4.09,1.26.9.83,1.42,2,1.42,3.63s-.51,3-1.46,3.93c-.94.94-2.5,1.45-4.47,1.45-.93,0-1.71-.04-2.37-.12v-9.94Zm1.31,8.94c.33.06.81.08,1.32.08,2.79,0,4.3-1.56,4.3-4.29.02-2.38-1.33-3.9-4.09-3.9-.67,0-1.18.06-1.53.13v7.98Z"/><path class="cls-16" d="m335.04,134.4l-.11-.92h-.04c-.41.57-1.18,1.08-2.22,1.08-1.47,0-2.22-1.04-2.22-2.08,0-1.75,1.56-2.71,4.36-2.7v-.15c0-.6-.17-1.68-1.65-1.68-.68,0-1.38.21-1.89.54l-.3-.87c.6-.39,1.47-.65,2.38-.65,2.22,0,2.76,1.52,2.76,2.97v2.71c0,.63.03,1.24.12,1.74h-1.2Zm-.2-3.71c-1.44-.03-3.08.23-3.08,1.64,0,.85.57,1.26,1.25,1.26.95,0,1.54-.6,1.75-1.21.04-.14.08-.29.08-.42v-1.26Z"/><path class="cls-16" d="m339.78,125.05v2.08h1.89v1h-1.89v3.92c0,.9.25,1.41.99,1.41.34,0,.6-.04.76-.09l.06.99c-.25.1-.66.18-1.17.18-.62,0-1.11-.19-1.42-.55-.38-.39-.51-1.04-.51-1.89v-3.96h-1.12v-1h1.12v-1.74l1.29-.35Z"/><path class="cls-16" d="m347.18,134.4l-.11-.92h-.04c-.41.57-1.18,1.08-2.22,1.08-1.47,0-2.22-1.04-2.22-2.08,0-1.75,1.56-2.71,4.36-2.7v-.15c0-.6-.17-1.68-1.65-1.68-.68,0-1.38.21-1.89.54l-.3-.87c.6-.39,1.47-.65,2.38-.65,2.22,0,2.76,1.52,2.76,2.97v2.71c0,.63.03,1.24.12,1.74h-1.2Zm-.2-3.71c-1.44-.03-3.08.23-3.08,1.64,0,.85.57,1.26,1.25,1.26.95,0,1.54-.6,1.75-1.21.04-.14.08-.29.08-.42v-1.26Z"/></g><rect class="cls-3" x="128" y="313.6" width="52.38" height="24.4" rx="6.21" ry="6.21"/><g><path class="cls-15" d="m137.12,327.43c.55.52,1.25.8,1.96.8.96,0,1.63-.44,1.63-1.08,0-.52-.35-.8-1.12-.91l-1.04-.14c-1.2-.18-1.77-.71-1.77-1.62,0-1.01.94-1.75,2.25-1.75.88,0,1.62.25,2.36.79l-.47.6c-.67-.46-1.28-.67-1.94-.67-.83,0-1.39.41-1.39,1,0,.52.32.77,1.12.89l1.04.14c1.2.17,1.8.71,1.8,1.63,0,1.04-1.06,1.83-2.44,1.83-1,0-1.89-.34-2.53-.94l.54-.58Z"/><path class="cls-15" d="m145.42,328.94c-1.74,0-3.09-1.36-3.09-3.12s1.31-3.09,2.96-3.09,2.84,1.37,2.84,3.09v.28h-4.93c.13,1.19,1.07,2.06,2.25,2.06.62,0,1.25-.2,1.66-.55l.55.59c-.67.5-1.38.74-2.24.74Zm-2.19-3.55h4.02c-.16-1.07-.98-1.88-1.98-1.88s-1.87.78-2.04,1.88Z"/><path class="cls-15" d="m149.37,322.82h.89v.71c.47-.55,1.12-.83,1.9-.83,1.37,0,2.31.95,2.31,2.33v3.8h-.88v-3.62c0-1.07-.65-1.73-1.68-1.73-.72,0-1.3.33-1.66.92v4.43h-.89v-6.01Z"/><path class="cls-15" d="m155.89,327.43c.55.52,1.25.8,1.96.8.96,0,1.63-.44,1.63-1.08,0-.52-.35-.8-1.12-.91l-1.04-.14c-1.2-.18-1.77-.71-1.77-1.62,0-1.01.94-1.75,2.25-1.75.88,0,1.62.25,2.36.79l-.47.6c-.67-.46-1.28-.67-1.94-.67-.83,0-1.39.41-1.39,1,0,.52.32.77,1.12.89l1.04.14c1.2.17,1.8.71,1.8,1.63,0,1.04-1.06,1.83-2.44,1.83-1,0-1.89-.34-2.53-.94l.54-.58Z"/><path class="cls-15" d="m164.17,322.7c1.7,0,3.06,1.37,3.06,3.12s-1.36,3.13-3.06,3.13-3.07-1.37-3.07-3.13,1.35-3.12,3.07-3.12Zm2.18,3.12c0-1.31-.96-2.33-2.18-2.33s-2.19,1.02-2.19,2.33.96,2.34,2.19,2.34,2.18-1.03,2.18-2.34Z"/><path class="cls-15" d="m168.46,322.82h.89v.85c.36-.62.95-.98,1.68-.98.23,0,.38.02.56.08v.82c-.22-.07-.42-.11-.62-.11-.74,0-1.31.43-1.62,1.24v4.11h-.89v-6.01Z"/></g><rect class="cls-3" x="211" y="313.6" width="52.38" height="24.4" rx="6.21" ry="6.21"/><g><path class="cls-15" d="m221.52,321.07c0-.34.28-.6.6-.6s.6.26.6.6-.26.6-.6.6-.6-.28-.6-.6Zm1.04,7.76h-.89v-6.01h.89v6.01Z"/><path class="cls-15" d="m224.07,322.82h.89v.71c.47-.55,1.12-.83,1.9-.83,1.37,0,2.31.95,2.31,2.33v3.8h-.88v-3.62c0-1.07-.65-1.73-1.68-1.73-.72,0-1.3.33-1.66.92v4.43h-.89v-6.01Z"/><path class="cls-15" d="m230.39,325.8c0-1.73,1.32-3.08,3.02-3.08.68,0,1.34.25,1.9.71v-.6h.88v6.15c0,1.54-.92,2.39-2.59,2.39-.84,0-1.68-.23-2.35-.62l.38-.7c.72.38,1.31.55,1.93.55,1.14,0,1.74-.55,1.74-1.61v-.8c-.54.46-1.2.7-1.91.7-1.67,0-3-1.34-3-3.08Zm3.07,2.3c.77,0,1.43-.3,1.83-.83v-2.95c-.41-.52-1.08-.82-1.83-.82-1.25,0-2.19,1-2.19,2.29s.96,2.3,2.19,2.3Z"/><path class="cls-15" d="m240.51,328.94c-1.74,0-3.09-1.36-3.09-3.12s1.31-3.09,2.96-3.09,2.84,1.37,2.84,3.09v.28h-4.93c.13,1.19,1.07,2.06,2.25,2.06.62,0,1.25-.2,1.66-.55l.55.59c-.67.5-1.38.74-2.24.74Zm-2.19-3.55h4.02c-.16-1.07-.98-1.88-1.98-1.88s-1.87.78-2.04,1.88Z"/><path class="cls-15" d="m244.45,327.43c.55.52,1.25.8,1.96.8.96,0,1.63-.44,1.63-1.08,0-.52-.35-.8-1.12-.91l-1.04-.14c-1.2-.18-1.77-.71-1.77-1.62,0-1.01.94-1.75,2.25-1.75.88,0,1.62.25,2.36.79l-.47.6c-.67-.46-1.28-.67-1.94-.67-.83,0-1.39.41-1.39,1,0,.52.32.77,1.12.89l1.04.14c1.2.17,1.8.71,1.8,1.63,0,1.04-1.06,1.83-2.44,1.83-1,0-1.89-.34-2.53-.94l.54-.58Z"/><path class="cls-15" d="m250.5,323.58h-1.29v-.76h1.29v-1.52l.88-.23v1.75h1.81v.76h-1.81v3.68c0,.65.26.9.92.9.34,0,.58-.04.88-.16v.78c-.31.11-.71.16-1.06.16-1.04,0-1.62-.5-1.62-1.45v-3.91Z"/></g><rect class="cls-3" x="298" y="340.6" width="52.38" height="24.4" rx="6.21" ry="6.21"/><rect class="cls-16" x="99" y="176" width="408" height="18"/><g><path class="cls-15" d="m311.98,355.19c-.52.48-1.19.73-1.94.73-1.69,0-3.02-1.36-3.02-3.11s1.32-3.09,3.03-3.09c.7,0,1.38.24,1.92.68v-2.97l.89-.2v8.6h-.88v-.64Zm-1.86-.05c.76,0,1.43-.31,1.85-.84v-2.97c-.42-.52-1.1-.83-1.85-.83-1.26,0-2.23.98-2.23,2.3s.97,2.34,2.23,2.34Z"/><path class="cls-15" d="m317.19,355.94c-1.74,0-3.09-1.36-3.09-3.12s1.31-3.09,2.96-3.09,2.84,1.37,2.84,3.09v.28h-4.93c.13,1.19,1.07,2.06,2.25,2.06.62,0,1.25-.2,1.66-.55l.55.59c-.67.5-1.38.74-2.24.74Zm-2.19-3.55h4.02c-.16-1.07-.98-1.88-1.98-1.88s-1.87.78-2.04,1.88Z"/><path class="cls-15" d="m321.64,350.58h-1.29v-.76h1.29v-1.52l.88-.23v1.75h1.81v.76h-1.81v3.68c0,.65.26.9.92.9.34,0,.58-.04.88-.16v.78c-.31.11-.71.16-1.06.16-1.04,0-1.62-.5-1.62-1.45v-3.91Z"/><path class="cls-15" d="m327.9,355.94c-1.74,0-3.09-1.36-3.09-3.12s1.31-3.09,2.96-3.09,2.84,1.37,2.84,3.09v.28h-4.93c.13,1.19,1.07,2.06,2.25,2.06.62,0,1.25-.2,1.66-.55l.55.59c-.67.5-1.38.74-2.24.74Zm-2.19-3.55h4.02c-.16-1.07-.98-1.88-1.98-1.88s-1.87.78-2.04,1.88Z"/><path class="cls-15" d="m336.42,354.38l.55.6c-.64.61-1.46.96-2.33.96-1.72,0-3.06-1.37-3.06-3.12s1.34-3.12,3.06-3.12c.88,0,1.73.35,2.35.95l-.56.65c-.48-.5-1.13-.78-1.77-.78-1.24,0-2.19,1.02-2.19,2.3s.97,2.32,2.21,2.32c.65,0,1.24-.25,1.75-.76Z"/><path class="cls-15" d="m338.88,350.58h-1.29v-.76h1.29v-1.52l.88-.23v1.75h1.81v.76h-1.81v3.68c0,.65.26.9.92.9.34,0,.58-.04.88-.16v.78c-.31.11-.71.16-1.06.16-1.04,0-1.62-.5-1.62-1.45v-3.91Z"/></g><rect class="cls-6" x="381" y="340.6" width="52.38" height="24.4" rx="6.21" ry="6.21"/><g><path class="cls-15" d="m395.62,354.13c0-1.13.92-1.83,2.4-1.83.64,0,1.25.14,1.76.41v-.79c0-.96-.55-1.45-1.59-1.45-.59,0-1.16.16-1.88.53l-.34-.68c.86-.42,1.57-.6,2.3-.6,1.52,0,2.38.74,2.38,2.09v4.04h-.86v-.59c-.54.47-1.19.7-1.94.7-1.32,0-2.22-.73-2.22-1.81Zm2.38,1.12c.72,0,1.31-.22,1.79-.7v-1.13c-.49-.33-1.04-.48-1.74-.48-.96,0-1.57.46-1.57,1.16,0,.67.62,1.14,1.52,1.14Z"/><path class="cls-15" d="m403.03,355.83h-.89v-8.4l.89-.2v8.6Z"/><path class="cls-15" d="m407.36,355.94c-1.74,0-3.09-1.36-3.09-3.12s1.31-3.09,2.96-3.09,2.84,1.37,2.84,3.09v.28h-4.93c.13,1.19,1.07,2.06,2.25,2.06.62,0,1.25-.2,1.66-.55l.55.59c-.67.5-1.38.74-2.24.74Zm-2.2-3.55h4.02c-.16-1.07-.98-1.88-1.98-1.88-1.04,0-1.87.78-2.04,1.88Z"/><path class="cls-15" d="m411.31,349.82h.89v.85c.36-.62.95-.98,1.68-.98.23,0,.38.02.56.08v.82c-.22-.07-.42-.11-.62-.11-.74,0-1.31.43-1.62,1.24v4.11h-.89v-6.01Z"/><path class="cls-15" d="m416.23,350.58h-1.29v-.76h1.29v-1.52l.88-.23v1.75h1.81v.76h-1.81v3.68c0,.65.26.9.92.9.33,0,.58-.04.88-.16v.78c-.31.11-.71.16-1.06.16-1.04,0-1.62-.5-1.62-1.45v-3.91Z"/></g><rect class="cls-3" x="298" y="285.6" width="52.38" height="24.4" rx="6.21" ry="6.21"/><g><path class="cls-15" d="m305.71,299.13c0-1.13.92-1.83,2.4-1.83.64,0,1.25.14,1.76.41v-.79c0-.96-.55-1.45-1.59-1.45-.59,0-1.16.16-1.88.53l-.34-.68c.86-.42,1.57-.6,2.3-.6,1.52,0,2.37.74,2.37,2.09v4.04h-.86v-.59c-.54.47-1.19.7-1.94.7-1.32,0-2.22-.73-2.22-1.81Zm2.38,1.12c.72,0,1.31-.22,1.79-.7v-1.13c-.49-.33-1.04-.48-1.74-.48-.96,0-1.57.46-1.57,1.16,0,.67.62,1.14,1.52,1.14Z"/><path class="cls-15" d="m312.23,294.82h.89v.85c.36-.62.95-.98,1.68-.98.23,0,.38.02.56.08v.82c-.22-.07-.42-.11-.62-.11-.74,0-1.31.43-1.62,1.24v4.11h-.89v-6.01Z"/><path class="cls-15" d="m320.5,299.38l.55.6c-.64.61-1.46.96-2.33.96-1.71,0-3.06-1.37-3.06-3.12s1.34-3.12,3.06-3.12c.88,0,1.73.35,2.35.95l-.56.65c-.48-.5-1.13-.78-1.78-.78-1.23,0-2.19,1.02-2.19,2.3s.97,2.32,2.21,2.32c.65,0,1.24-.25,1.75-.76Z"/><path class="cls-15" d="m322.1,292.43l.89-.2v3.3c.47-.55,1.12-.83,1.9-.83,1.37,0,2.31.95,2.31,2.33v3.8h-.88v-3.62c0-1.07-.65-1.73-1.68-1.73-.72,0-1.3.33-1.66.92v4.43h-.89v-8.4Z"/><path class="cls-15" d="m328.53,293.07c0-.34.28-.6.6-.6s.6.26.6.6-.26.6-.6.6-.6-.28-.6-.6Zm1.04,7.76h-.89v-6.01h.89v6.01Z"/><path class="cls-15" d="m330.4,294.82h.98l2.05,4.86,2.05-4.86h.95l-2.59,6.01h-.84l-2.6-6.01Z"/><path class="cls-15" d="m339.83,300.94c-1.74,0-3.09-1.36-3.09-3.12s1.31-3.09,2.96-3.09,2.84,1.37,2.84,3.09v.28h-4.93c.13,1.19,1.07,2.06,2.25,2.06.62,0,1.25-.2,1.66-.55l.55.59c-.67.5-1.38.74-2.24.74Zm-2.19-3.55h4.02c-.16-1.07-.98-1.88-1.98-1.88s-1.87.78-2.04,1.88Z"/></g><line class="cls-3" x1="180.38" y1="325.8" x2="211" y2="325.8"/><line class="cls-3" x1="350.38" y1="352.8" x2="381" y2="352.8"/><path class="cls-3" d="m263.38,325.8s7.84-1.57,7.98,5.56,0,16.1,0,16.1c0,0,1.59,5.63,5.36,5.33s21.28,0,21.28,0"/><path class="cls-3" d="m263.38,324.66s7.84,1.57,7.98-5.56,0-16.1,0-16.1c0,0,1.59-5.63,5.36-5.33s21.28,0,21.28,0"/><g class="cls-18"><path class="cls-15" d="m118.15,171.42c-1.62,0-2.89-1.27-2.89-2.89s1.27-2.89,2.89-2.89,2.88,1.27,2.88,2.89-1.27,2.89-2.88,2.89Zm0-5.21c-1.28,0-2.26,1.01-2.26,2.32s.98,2.32,2.26,2.32,2.25-1.02,2.25-2.32-.98-2.32-2.25-2.32Z"/><path class="cls-15" d="m121.89,167.33h.59v.57c.24-.42.63-.66,1.12-.66.15,0,.26.02.38.06v.54c-.14-.05-.28-.07-.42-.07-.5,0-.87.29-1.08.82v2.74h-.59v-4.01Z"/><path class="cls-15" d="m124.55,166.16c0-.22.18-.4.4-.4s.4.18.4.4-.18.4-.4.4-.4-.18-.4-.4Zm.7,5.17h-.59v-4.01h.59v4.01Z"/><path class="cls-15" d="m126.07,169.31c0-1.15.88-2.05,2.02-2.05.46,0,.9.17,1.26.47v-.4h.58v4.1c0,1.02-.62,1.59-1.73,1.59-.56,0-1.12-.15-1.57-.42l.26-.46c.48.26.87.37,1.29.37.76,0,1.16-.37,1.16-1.07v-.54c-.36.3-.8.46-1.27.46-1.11,0-2-.9-2-2.05Zm2.05,1.54c.51,0,.95-.2,1.22-.55v-1.97c-.27-.34-.72-.54-1.22-.54-.83,0-1.46.66-1.46,1.53s.64,1.54,1.46,1.54Z"/><path class="cls-15" d="m130.84,166.16c0-.22.18-.4.4-.4s.4.18.4.4-.18.4-.4.4-.4-.18-.4-.4Zm.7,5.17h-.59v-4.01h.59v4.01Z"/><path class="cls-15" d="m132.55,167.33h.59v.47c.31-.37.74-.55,1.26-.55.91,0,1.54.63,1.54,1.55v2.53h-.58v-2.41c0-.71-.43-1.15-1.12-1.15-.48,0-.86.22-1.1.62v2.95h-.59v-4.01Z"/><path class="cls-15" d="m139.15,167.83h-.86v-.5h.86v-1.02l.58-.15v1.17h1.21v.5h-1.21v2.45c0,.43.18.6.62.6.22,0,.38-.02.58-.1v.52c-.21.07-.47.1-.7.1-.7,0-1.08-.34-1.08-.97v-2.61Z"/><path class="cls-15" d="m141.48,166.16c0-.22.18-.4.4-.4s.4.18.4.4-.18.4-.4.4-.4-.18-.4-.4Zm.7,5.17h-.59v-4.01h.59v4.01Z"/><path class="cls-15" d="m143.18,167.33h.59v.44c.3-.34.7-.52,1.18-.52.56,0,1.02.28,1.26.73.33-.49.79-.73,1.38-.73.87,0,1.47.63,1.47,1.55v2.53h-.58v-2.41c0-.71-.4-1.15-1.04-1.15-.44,0-.81.22-1.06.66.02.12.04.24.04.38v2.53h-.58v-2.41c0-.71-.4-1.15-1.03-1.15-.43,0-.78.2-1.02.58v2.98h-.59v-4.01Z"/><path class="cls-15" d="m151.93,171.4c-1.16,0-2.06-.9-2.06-2.08s.87-2.06,1.98-2.06,1.9.91,1.9,2.06v.18h-3.29c.09.79.71,1.38,1.5,1.38.42,0,.83-.14,1.1-.37l.37.39c-.45.34-.92.5-1.5.5Zm-1.46-2.37h2.68c-.1-.71-.66-1.26-1.32-1.26s-1.25.52-1.36,1.26Z"/></g><g class="cls-18"><path class="cls-15" d="m531.53,178.73h4.01v.54h-3.39v1.96h2.21v.54h-2.21v2.02h3.42v.54h-4.04v-5.6Z"/><path class="cls-15" d="m535.75,180.33h.66l1.37,3.24,1.37-3.24h.63l-1.73,4.01h-.56l-1.74-4.01Z"/><path class="cls-15" d="m542.04,184.4c-1.16,0-2.06-.9-2.06-2.08s.87-2.06,1.98-2.06,1.89.91,1.89,2.06v.18h-3.29c.09.79.71,1.38,1.5,1.38.42,0,.83-.14,1.1-.37l.37.39c-.45.34-.92.5-1.5.5Zm-1.46-2.37h2.68c-.1-.71-.66-1.26-1.32-1.26s-1.25.52-1.36,1.26Z"/><path class="cls-15" d="m544.67,180.33h.59v.47c.31-.37.74-.55,1.26-.55.91,0,1.54.63,1.54,1.55v2.53h-.58v-2.41c0-.71-.43-1.15-1.12-1.15-.48,0-.86.22-1.1.62v2.95h-.59v-4.01Z"/><path class="cls-15" d="m549.4,180.83h-.86v-.5h.86v-1.02l.58-.15v1.17h1.21v.5h-1.21v2.45c0,.43.18.6.62.6.22,0,.38-.02.58-.1v.52c-.21.07-.47.1-.7.1-.7,0-1.08-.34-1.08-.97v-2.61Z"/><path class="cls-15" d="m553.66,178.73h.62v5.6h-.62v-5.6Z"/><path class="cls-15" d="m555.51,178.73h1.85c1.7,0,2.94,1.18,2.94,2.8s-1.23,2.8-2.94,2.8h-1.85v-5.6Zm.62.56v4.48h1.26c1.3,0,2.29-.97,2.29-2.24s-.99-2.24-2.29-2.24h-1.26Z"/></g><g><path class="cls-15" d="m531.21,198.9l2.12-2.04c.74-.73.97-1.08.97-1.58,0-.64-.54-1.1-1.28-1.1-.55,0-.97.19-1.55.69l-.34-.41c.61-.54,1.22-.79,1.9-.79,1.08,0,1.85.66,1.85,1.58,0,.66-.24,1.08-1.16,1.95l-1.7,1.62h2.97v.51h-3.77v-.43Z"/><path class="cls-15" d="m535.9,193.73h3.29v.51h-2.79l-.08,1.83c.37-.14.75-.21,1.16-.21,1.19,0,2.01.7,2.01,1.71,0,1.1-.82,1.83-2.04,1.83-.77,0-1.44-.26-1.99-.76l.37-.39c.51.45.99.65,1.63.65.86,0,1.44-.53,1.44-1.3,0-.74-.62-1.25-1.52-1.25-.42,0-.84.09-1.25.26l-.34-.12.13-2.76Z"/><path class="cls-15" d="m541.39,199.33h-.58v-4.98l-.94.42v-.54l1.15-.5h.38v5.6Z"/><path class="cls-15" d="m544.17,199.41c-.8,0-1.5-.27-2.05-.79l.39-.38c.49.46.99.66,1.65.66.85,0,1.44-.46,1.44-1.11,0-.61-.58-1.03-1.42-1.03h-.47v-.49h.44c.71,0,1.24-.47,1.24-1.1,0-.58-.54-1.01-1.26-1.01-.6,0-1.04.19-1.54.68l-.39-.39c.55-.54,1.2-.81,1.95-.81,1.05,0,1.83.64,1.83,1.51,0,.57-.36,1.05-.96,1.3.71.2,1.18.71,1.18,1.35,0,.93-.85,1.61-2.03,1.61Z"/><path class="cls-15" d="m547.17,193.73h3.29v.51h-2.79l-.08,1.83c.37-.14.75-.21,1.16-.21,1.19,0,2.01.7,2.01,1.71,0,1.1-.81,1.83-2.04,1.83-.77,0-1.44-.26-1.99-.76l.37-.39c.51.45.99.65,1.63.65.86,0,1.44-.53,1.44-1.3,0-.74-.62-1.25-1.52-1.25-.42,0-.84.09-1.25.26l-.34-.12.13-2.76Z"/><path class="cls-15" d="m551.43,196.73c0-1.87,1.04-3.08,2.6-3.08.49,0,.98.14,1.34.37l-.29.46c-.33-.19-.71-.3-1.08-.3-1.21,0-1.95.91-1.99,2.45.42-.5,1.06-.8,1.7-.8,1.12,0,1.94.74,1.94,1.75s-.83,1.82-1.96,1.82c-1.33,0-2.26-1.1-2.26-2.67Zm.61.42c.13,1.05.77,1.74,1.65,1.74.79,0,1.38-.55,1.38-1.29s-.59-1.28-1.45-1.28c-.59,0-1.17.3-1.58.83Z"/><path class="cls-15" d="m556.07,198.9l2.12-2.04c.74-.73.97-1.08.97-1.58,0-.64-.54-1.1-1.28-1.1-.55,0-.98.19-1.55.69l-.34-.41c.61-.54,1.22-.79,1.9-.79,1.08,0,1.85.66,1.85,1.58,0,.66-.24,1.08-1.16,1.95l-1.7,1.62h2.97v.51h-3.77v-.43Z"/><path class="cls-15" d="m562.33,199.41c-.8,0-1.5-.27-2.05-.79l.39-.38c.49.46.99.66,1.66.66.85,0,1.44-.46,1.44-1.11,0-.61-.58-1.03-1.42-1.03h-.47v-.49h.44c.71,0,1.24-.47,1.24-1.1,0-.58-.54-1.01-1.26-1.01-.6,0-1.04.19-1.54.68l-.39-.39c.55-.54,1.2-.81,1.95-.81,1.06,0,1.83.64,1.83,1.51,0,.57-.36,1.05-.96,1.3.71.2,1.18.71,1.18,1.35,0,.93-.85,1.61-2.03,1.61Z"/><path class="cls-15" d="m565.07,197.82c0-.66.49-1.21,1.21-1.43-.59-.22-.98-.71-.98-1.29,0-.83.8-1.46,1.86-1.46s1.87.62,1.87,1.46c0,.58-.39,1.06-.98,1.29.72.22,1.21.78,1.21,1.43,0,.92-.88,1.59-2.09,1.59s-2.09-.67-2.09-1.59Zm3.6-.04c0-.64-.66-1.14-1.51-1.14s-1.51.5-1.51,1.14.66,1.15,1.51,1.15,1.51-.5,1.51-1.15Zm-.21-2.65c0-.57-.56-1.02-1.3-1.02s-1.29.45-1.29,1.02.56,1.01,1.29,1.01,1.3-.44,1.3-1.01Z"/><path class="cls-15" d="m571.76,199.41c-.8,0-1.5-.27-2.05-.79l.39-.38c.49.46.99.66,1.66.66.85,0,1.44-.46,1.44-1.11,0-.61-.58-1.03-1.42-1.03h-.47v-.49h.44c.71,0,1.24-.47,1.24-1.1,0-.58-.54-1.01-1.26-1.01-.6,0-1.04.19-1.54.68l-.39-.39c.55-.54,1.2-.81,1.95-.81,1.06,0,1.83.64,1.83,1.51,0,.57-.36,1.05-.96,1.3.71.2,1.18.71,1.18,1.35,0,.93-.85,1.61-2.03,1.61Z"/><path class="cls-15" d="m578.06,200.43h-3.87v-.46h3.87v.46Z"/><path class="cls-15" d="m578.67,193.73h4.01v.54h-3.39v1.96h2.21v.54h-2.21v2.02h3.42v.54h-4.04v-5.6Z"/><path class="cls-15" d="m583.14,193.73h.66l2.02,5.02,2.05-5.02h.62l-2.33,5.6h-.74l-2.29-5.6Z"/><path class="cls-15" d="m592.4,200.43h-3.87v-.46h3.87v.46Z"/><path class="cls-15" d="m593.01,193.73h.62v5.05h3.33v.55h-3.95v-5.6Z"/><path class="cls-15" d="m599.79,193.73h.74l2.29,5.6h-.67l-.7-1.76h-2.64l-.71,1.76h-.64l2.33-5.6Zm1.45,3.31l-1.09-2.73-1.11,2.73h2.21Z"/><path class="cls-15" d="m604.1,193.73l3.37,4.54v-4.54h.58v5.6h-.54l-3.44-4.66v4.66h-.58v-5.6h.62Z"/><path class="cls-15" d="m613.72,198.08l.4.42c-.56.58-1.35.92-2.2.92-1.63,0-2.9-1.27-2.9-2.89s1.27-2.89,2.9-2.89c.87,0,1.67.34,2.21.92l-.41.43c-.44-.5-1.12-.78-1.81-.78-1.29,0-2.28,1.01-2.28,2.32s.99,2.32,2.29,2.32c.7,0,1.36-.29,1.78-.77Z"/><path class="cls-15" d="m618.3,200.43h-3.87v-.46h3.87v.46Z"/><path class="cls-15" d="m620.66,193.73h.74l2.29,5.6h-.67l-.7-1.76h-2.64l-.71,1.76h-.64l2.33-5.6Zm1.45,3.31l-1.1-2.73-1.11,2.73h2.21Z"/></g><g><path class="cls-15" d="m540.19,309.8c0-1.27.71-2.16,1.71-2.16s1.71.89,1.71,2.16-.71,2.16-1.71,2.16-1.71-.89-1.71-2.16Zm2.99,0c0-1.07-.5-1.77-1.28-1.77s-1.27.7-1.27,1.77.5,1.76,1.27,1.76,1.28-.69,1.28-1.76Z"/><path class="cls-15" d="m545.15,311.9h-.44v-3.74l-.71.31v-.4l.86-.37h.28v4.2Z"/><path class="cls-15" d="m546.47,309.13c0,.17-.14.31-.31.31s-.31-.14-.31-.31.14-.31.31-.31.31.14.31.31Zm0,2.49c0,.17-.14.31-.31.31s-.31-.14-.31-.31.14-.3.31-.3.31.14.31.3Z"/><path class="cls-15" d="m548.42,311.96c-.6,0-1.13-.2-1.54-.59l.29-.29c.37.35.74.5,1.24.5.64,0,1.08-.34,1.08-.83,0-.46-.43-.77-1.07-.77h-.35v-.37h.33c.53,0,.93-.35.93-.82,0-.43-.41-.76-.95-.76-.45,0-.78.14-1.16.51l-.29-.29c.41-.4.9-.61,1.46-.61.79,0,1.37.48,1.37,1.13,0,.43-.27.79-.72.97.53.15.89.53.89,1.01,0,.7-.64,1.21-1.52,1.21Z"/><path class="cls-15" d="m551.85,311.96c-.6,0-1.13-.2-1.54-.59l.29-.29c.37.35.74.5,1.24.5.64,0,1.08-.34,1.08-.83,0-.46-.43-.77-1.07-.77h-.35v-.37h.33c.53,0,.93-.35.93-.82,0-.43-.41-.76-.95-.76-.45,0-.78.14-1.16.51l-.29-.29c.41-.4.9-.61,1.46-.61.79,0,1.37.48,1.37,1.13,0,.43-.27.79-.72.97.53.15.89.53.89,1.01,0,.7-.64,1.21-1.52,1.21Z"/><path class="cls-15" d="m554.58,309.13c0,.17-.14.31-.31.31s-.31-.14-.31-.31.14-.31.31-.31.31.14.31.31Zm0,2.49c0,.17-.14.31-.31.31s-.31-.14-.31-.31.14-.3.31-.3.31.14.31.3Z"/><path class="cls-15" d="m555.14,309.8c0-1.27.71-2.16,1.71-2.16s1.71.89,1.71,2.16-.71,2.16-1.71,2.16-1.71-.89-1.71-2.16Zm2.99,0c0-1.07-.5-1.77-1.28-1.77s-1.27.7-1.27,1.77.5,1.76,1.27,1.76,1.28-.69,1.28-1.76Z"/><path class="cls-15" d="m559.1,309.95c0-1.4.78-2.31,1.95-2.31.37,0,.73.1,1.01.28l-.22.34c-.25-.14-.53-.22-.81-.22-.91,0-1.46.68-1.49,1.84.31-.37.79-.6,1.28-.6.84,0,1.45.55,1.45,1.31s-.62,1.37-1.47,1.37c-1,0-1.7-.82-1.7-2Zm.46.31c.1.79.58,1.31,1.24,1.31.59,0,1.03-.41,1.03-.97s-.44-.96-1.09-.96c-.44,0-.88.23-1.18.62Z"/><path class="cls-15" d="m563.26,311.63c0,.17-.14.31-.31.31s-.31-.14-.31-.31.14-.3.31-.3.31.14.31.3Z"/><path class="cls-15" d="m563.99,307.7h2.46v.38h-2.09l-.06,1.37c.28-.1.56-.16.87-.16.89,0,1.5.53,1.5,1.28,0,.82-.61,1.37-1.53,1.37-.58,0-1.08-.19-1.49-.57l.28-.29c.38.34.74.49,1.22.49.64,0,1.08-.4,1.08-.98,0-.55-.46-.94-1.14-.94-.31,0-.63.07-.94.19l-.26-.09.1-2.07Z"/><path class="cls-15" d="m566.99,311.57l1.59-1.53c.56-.55.73-.81.73-1.19,0-.48-.41-.83-.96-.83-.41,0-.73.14-1.16.52l-.26-.31c.46-.4.92-.59,1.43-.59.81,0,1.38.5,1.38,1.19,0,.5-.18.81-.87,1.46l-1.28,1.22h2.22v.38h-2.82v-.32Z"/><path class="cls-15" d="m571.68,311.96c-.6,0-1.13-.2-1.54-.59l.29-.29c.37.35.74.5,1.24.5.63,0,1.08-.34,1.08-.83,0-.46-.43-.77-1.07-.77h-.35v-.37h.33c.53,0,.93-.35.93-.82,0-.43-.41-.76-.95-.76-.45,0-.78.14-1.16.51l-.29-.29c.41-.4.9-.61,1.46-.61.79,0,1.37.48,1.37,1.13,0,.43-.27.79-.72.97.53.15.89.53.89,1.01,0,.7-.64,1.21-1.52,1.21Z"/></g><g><path class="cls-15" d="m581.23,311.9h-.44v-3.74l-.71.31v-.4l.86-.37h.28v4.2Z"/><path class="cls-15" d="m582.55,311.63c0,.17-.14.31-.31.31s-.31-.14-.31-.31.14-.3.31-.3.31.14.31.3Z"/><path class="cls-15" d="m585.67,310.4h.5v.38h-.5v1.12h-.44v-1.12h-2.39v-.35l2.36-2.73h.47v2.7Zm-.44,0v-2.14l-1.85,2.14h1.85Z"/><path class="cls-15" d="m586.77,307.7h2.46v.38h-2.09l-.06,1.37c.28-.1.56-.16.87-.16.89,0,1.5.53,1.5,1.28,0,.82-.61,1.37-1.53,1.37-.58,0-1.08-.19-1.49-.57l.28-.29c.38.34.74.49,1.22.49.64,0,1.08-.4,1.08-.98,0-.55-.46-.94-1.14-.94-.31,0-.63.07-.94.19l-.26-.09.1-2.07Z"/></g><g><path class="cls-15" d="m581.23,323.9h-.44v-3.74l-.71.31v-.4l.86-.37h.28v4.2Z"/><path class="cls-15" d="m582.55,323.63c0,.17-.14.31-.31.31s-.31-.14-.31-.31.14-.3.31-.3.31.14.31.3Z"/><path class="cls-15" d="m584.46,323.96c-.6,0-1.13-.2-1.54-.59l.29-.29c.37.35.74.5,1.24.5.64,0,1.08-.34,1.08-.83,0-.46-.43-.77-1.07-.77h-.35v-.37h.33c.53,0,.93-.35.93-.82,0-.43-.41-.76-.95-.76-.45,0-.78.14-1.16.51l-.29-.29c.41-.4.9-.61,1.46-.61.79,0,1.37.48,1.37,1.13,0,.43-.27.79-.72.97.53.15.89.53.89,1.01,0,.7-.64,1.21-1.52,1.21Z"/><path class="cls-15" d="m587.5,323.9h-.44v-3.74l-.71.31v-.4l.86-.37h.28v4.2Z"/></g><g><path class="cls-15" d="m581.23,335.9h-.44v-3.74l-.71.31v-.4l.86-.37h.28v4.2Z"/><path class="cls-15" d="m582.55,335.63c0,.17-.14.31-.31.31s-.31-.14-.31-.31.14-.3.31-.3.31.14.31.3Z"/><path class="cls-15" d="m586.07,333.65c0,1.4-.78,2.31-1.95,2.31-.37,0-.73-.1-1.01-.28l.21-.34c.25.14.53.22.81.22.9,0,1.46-.68,1.49-1.83-.31.37-.79.6-1.28.6-.84,0-1.45-.55-1.45-1.31s.62-1.37,1.47-1.37c1,0,1.7.82,1.7,2Zm-.46-.31c-.1-.79-.58-1.31-1.24-1.31-.59,0-1.03.41-1.03.97s.44.96,1.08.96c.44,0,.88-.23,1.18-.62Z"/><path class="cls-15" d="m589.33,334.4h.5v.38h-.5v1.12h-.44v-1.12h-2.39v-.35l2.36-2.73h.47v2.7Zm-.44,0v-2.14l-1.85,2.14h1.85Z"/></g><path class="cls-15" d="m603.13,310.35l-1.12-1.46h.53l.85,1.13.85-1.13h.51l-1.11,1.45,1.19,1.55h-.53l-.92-1.22-.93,1.22h-.5l1.18-1.55Z"/><g><path class="cls-15" d="m603.13,322.35l-1.12-1.46h.53l.85,1.13.85-1.13h.51l-1.11,1.45,1.19,1.55h-.53l-.92-1.22-.93,1.22h-.5l1.18-1.55Z"/><path class="cls-15" d="m606.17,323.89l-1.22-3h.49l.97,2.46,1.05-2.46h.48l-1.49,3.46c-.26.58-.54.81-1.02.81-.11,0-.22-.01-.28-.03v-.4c.08.02.14.02.25.02.27,0,.46-.15.6-.47l.17-.4Z"/></g><path class="cls-15" d="m602.1,335.55l1.81-2.26h-1.79v-.4h2.33v.34l-1.82,2.27h1.83v.4h-2.37v-.35Z"/><g><path class="cls-15" d="m540.19,321.8c0-1.27.71-2.16,1.71-2.16s1.71.89,1.71,2.16-.71,2.16-1.71,2.16-1.71-.89-1.71-2.16Zm2.99,0c0-1.07-.5-1.77-1.28-1.77s-1.27.7-1.27,1.77.5,1.76,1.27,1.76,1.28-.69,1.28-1.76Z"/><path class="cls-15" d="m545.15,323.9h-.44v-3.74l-.71.31v-.4l.86-.37h.28v4.2Z"/><path class="cls-15" d="m546.47,321.13c0,.17-.14.31-.31.31s-.31-.14-.31-.31.14-.31.31-.31.31.14.31.31Zm0,2.49c0,.17-.14.31-.31.31s-.31-.14-.31-.31.14-.3.31-.3.31.14.31.3Z"/><path class="cls-15" d="m548.42,323.96c-.6,0-1.13-.2-1.54-.59l.29-.29c.37.35.74.5,1.24.5.64,0,1.08-.34,1.08-.83,0-.46-.43-.77-1.07-.77h-.35v-.37h.33c.53,0,.93-.35.93-.82,0-.43-.41-.76-.95-.76-.45,0-.78.14-1.16.51l-.29-.29c.41-.4.9-.61,1.46-.61.79,0,1.37.48,1.37,1.13,0,.43-.27.79-.72.97.53.15.89.53.89,1.01,0,.7-.64,1.21-1.52,1.21Z"/><path class="cls-15" d="m551.85,323.96c-.6,0-1.13-.2-1.54-.59l.29-.29c.37.35.74.5,1.24.5.64,0,1.08-.34,1.08-.83,0-.46-.43-.77-1.07-.77h-.35v-.37h.33c.53,0,.93-.35.93-.82,0-.43-.41-.76-.95-.76-.45,0-.78.14-1.16.51l-.29-.29c.41-.4.9-.61,1.46-.61.79,0,1.37.48,1.37,1.13,0,.43-.27.79-.72.97.53.15.89.53.89,1.01,0,.7-.64,1.21-1.52,1.21Z"/><path class="cls-15" d="m554.58,321.13c0,.17-.14.31-.31.31s-.31-.14-.31-.31.14-.31.31-.31.31.14.31.31Zm0,2.49c0,.17-.14.31-.31.31s-.31-.14-.31-.31.14-.3.31-.3.31.14.31.3Z"/><path class="cls-15" d="m555.14,321.8c0-1.27.71-2.16,1.71-2.16s1.71.89,1.71,2.16-.71,2.16-1.71,2.16-1.71-.89-1.71-2.16Zm2.99,0c0-1.07-.5-1.77-1.28-1.77s-1.27.7-1.27,1.77.5,1.76,1.27,1.76,1.28-.69,1.28-1.76Z"/><path class="cls-15" d="m559.1,321.95c0-1.4.78-2.31,1.95-2.31.37,0,.73.1,1.01.28l-.22.34c-.25-.14-.53-.22-.81-.22-.91,0-1.46.68-1.49,1.84.31-.37.79-.6,1.28-.6.84,0,1.45.55,1.45,1.31s-.62,1.37-1.47,1.37c-1,0-1.7-.82-1.7-2Zm.46.31c.1.79.58,1.31,1.24,1.31.59,0,1.03-.41,1.03-.97s-.44-.96-1.09-.96c-.44,0-.88.23-1.18.62Z"/><path class="cls-15" d="m563.26,323.63c0,.17-.14.31-.31.31s-.31-.14-.31-.31.14-.3.31-.3.31.14.31.3Z"/><path class="cls-15" d="m566.78,321.65c0,1.4-.78,2.31-1.95,2.31-.37,0-.73-.1-1.01-.28l.21-.34c.25.14.53.22.81.22.9,0,1.46-.68,1.49-1.83-.31.37-.79.6-1.28.6-.84,0-1.45-.55-1.45-1.31s.62-1.37,1.47-1.37c1,0,1.7.82,1.7,2Zm-.46-.31c-.1-.79-.58-1.31-1.24-1.31-.59,0-1.03.41-1.03.97s.44.96,1.08.96c.44,0,.88-.23,1.18-.62Z"/><path class="cls-15" d="m567.33,322.76c0-.49.37-.91.9-1.07-.44-.17-.74-.53-.74-.97,0-.62.6-1.09,1.4-1.09s1.4.47,1.4,1.09c0,.43-.29.8-.74.97.54.17.91.58.91,1.07,0,.69-.66,1.19-1.57,1.19s-1.56-.5-1.56-1.19Zm2.7-.03c0-.48-.49-.85-1.13-.85s-1.13.37-1.13.85.49.86,1.13.86,1.13-.37,1.13-.86Zm-.16-1.99c0-.43-.42-.76-.97-.76s-.96.34-.96.76.42.76.96.76.97-.33.97-.76Z"/><path class="cls-15" d="m572.35,323.96c-.6,0-1.13-.2-1.54-.59l.29-.29c.37.35.74.5,1.24.5.64,0,1.08-.34,1.08-.83,0-.46-.43-.77-1.07-.77h-.35v-.37h.33c.53,0,.93-.35.93-.82,0-.43-.41-.76-.95-.76-.45,0-.78.14-1.16.51l-.29-.29c.41-.4.9-.61,1.46-.61.79,0,1.37.48,1.37,1.13,0,.43-.27.79-.72.97.53.15.89.53.89,1.01,0,.7-.64,1.21-1.52,1.21Z"/></g><g><path class="cls-15" d="m540.19,333.8c0-1.27.71-2.16,1.71-2.16s1.71.89,1.71,2.16-.71,2.16-1.71,2.16-1.71-.89-1.71-2.16Zm2.99,0c0-1.07-.5-1.77-1.28-1.77s-1.27.7-1.27,1.77.5,1.76,1.27,1.76,1.28-.69,1.28-1.76Z"/><path class="cls-15" d="m545.15,335.9h-.44v-3.74l-.71.31v-.4l.86-.37h.28v4.2Z"/><path class="cls-15" d="m546.47,333.13c0,.17-.14.31-.31.31s-.31-.14-.31-.31.14-.31.31-.31.31.14.31.31Zm0,2.49c0,.17-.14.31-.31.31s-.31-.14-.31-.31.14-.3.31-.3.31.14.31.3Z"/><path class="cls-15" d="m548.42,335.96c-.6,0-1.13-.2-1.54-.59l.29-.29c.37.35.74.5,1.24.5.64,0,1.08-.34,1.08-.83,0-.46-.43-.77-1.07-.77h-.35v-.37h.33c.53,0,.93-.35.93-.82,0-.43-.41-.76-.95-.76-.45,0-.78.14-1.16.51l-.29-.29c.41-.4.9-.61,1.46-.61.79,0,1.37.48,1.37,1.13,0,.43-.27.79-.72.97.53.15.89.53.89,1.01,0,.7-.64,1.21-1.52,1.21Z"/><path class="cls-15" d="m551.85,335.96c-.6,0-1.13-.2-1.54-.59l.29-.29c.37.35.74.5,1.24.5.64,0,1.08-.34,1.08-.83,0-.46-.43-.77-1.07-.77h-.35v-.37h.33c.53,0,.93-.35.93-.82,0-.43-.41-.76-.95-.76-.45,0-.78.14-1.16.51l-.29-.29c.41-.4.9-.61,1.46-.61.79,0,1.37.48,1.37,1.13,0,.43-.27.79-.72.97.53.15.89.53.89,1.01,0,.7-.64,1.21-1.52,1.21Z"/><path class="cls-15" d="m554.58,333.13c0,.17-.14.31-.31.31s-.31-.14-.31-.31.14-.31.31-.31.31.14.31.31Zm0,2.49c0,.17-.14.31-.31.31s-.31-.14-.31-.31.14-.3.31-.3.31.14.31.3Z"/><path class="cls-15" d="m555.14,333.8c0-1.27.71-2.16,1.71-2.16s1.71.89,1.71,2.16-.71,2.16-1.71,2.16-1.71-.89-1.71-2.16Zm2.99,0c0-1.07-.5-1.77-1.28-1.77s-1.27.7-1.27,1.77.5,1.76,1.27,1.76,1.28-.69,1.28-1.76Z"/><path class="cls-15" d="m561.36,332.09h-2.65v-.39h3.15v.34l-2.18,3.86h-.5l2.19-3.81Z"/><path class="cls-15" d="m562.22,335.63c0,.17-.14.31-.31.31s-.31-.14-.31-.31.14-.3.31-.3.31.14.31.3Z"/><path class="cls-15" d="m564.13,335.96c-.6,0-1.13-.2-1.54-.59l.29-.29c.37.35.74.5,1.24.5.64,0,1.08-.34,1.08-.83,0-.46-.43-.77-1.07-.77h-.35v-.37h.33c.53,0,.93-.35.93-.82,0-.43-.41-.76-.95-.76-.45,0-.78.14-1.16.51l-.29-.29c.41-.4.9-.61,1.46-.61.79,0,1.37.48,1.37,1.13,0,.43-.27.79-.72.97.53.15.89.53.89,1.01,0,.7-.63,1.21-1.52,1.21Z"/><path class="cls-15" d="m568.94,334.4h.5v.38h-.5v1.12h-.44v-1.12h-2.39v-.35l2.36-2.73h.47v2.7Zm-.44,0v-2.14l-1.85,2.14h1.85Z"/><path class="cls-15" d="m570.9,335.9h-.44v-3.74l-.71.31v-.4l.86-.37h.28v4.2Z"/></g><g><path class="cls-15" d="m580.4,388.7h2.46v.38h-2.09l-.06,1.37c.28-.1.56-.16.87-.16.89,0,1.51.53,1.51,1.28,0,.82-.61,1.37-1.53,1.37-.58,0-1.08-.19-1.49-.57l.28-.29c.38.34.74.49,1.22.49.64,0,1.08-.4,1.08-.98,0-.55-.46-.94-1.14-.94-.31,0-.63.07-.94.19l-.26-.09.1-2.07Z"/><path class="cls-15" d="m584.08,392.63c0,.17-.14.31-.3.31s-.31-.14-.31-.31.14-.3.31-.3.3.14.3.3Z"/><path class="cls-15" d="m584.59,392.57l1.59-1.53c.56-.55.73-.81.73-1.19,0-.48-.41-.83-.96-.83-.41,0-.73.14-1.16.52l-.26-.31c.46-.4.92-.59,1.43-.59.81,0,1.39.5,1.39,1.19,0,.5-.18.81-.87,1.46l-1.28,1.22h2.22v.38h-2.83v-.32Z"/><path class="cls-15" d="m589.29,392.96c-.6,0-1.13-.2-1.54-.59l.29-.29c.37.35.74.5,1.24.5.64,0,1.08-.34,1.08-.83,0-.46-.43-.77-1.07-.77h-.35v-.37h.33c.53,0,.93-.35.93-.82,0-.43-.41-.76-.95-.76-.45,0-.78.14-1.16.51l-.29-.29c.41-.4.9-.61,1.46-.61.79,0,1.37.48,1.37,1.13,0,.43-.27.79-.72.97.53.15.89.53.89,1.01,0,.7-.64,1.21-1.52,1.21Z"/></g><path class="cls-15" d="m602.14,392.57l1.59-1.53c.56-.55.72-.81.72-1.19,0-.48-.41-.83-.96-.83-.41,0-.73.14-1.16.52l-.26-.31c.46-.4.92-.59,1.43-.59.81,0,1.38.5,1.38,1.19,0,.5-.18.81-.87,1.46l-1.28,1.22h2.22v.38h-2.82v-.32Z"/><g><path class="cls-15" d="m540.19,390.8c0-1.27.71-2.16,1.71-2.16s1.71.89,1.71,2.16-.71,2.16-1.71,2.16-1.71-.89-1.71-2.16Zm2.99,0c0-1.07-.5-1.77-1.28-1.77s-1.27.7-1.27,1.77.5,1.76,1.27,1.76,1.28-.69,1.28-1.76Z"/><path class="cls-15" d="m545.15,392.9h-.44v-3.74l-.71.31v-.4l.86-.37h.28v4.2Z"/><path class="cls-15" d="m546.47,390.13c0,.17-.14.31-.31.31s-.31-.14-.31-.31.14-.31.31-.31.31.14.31.31Zm0,2.49c0,.17-.14.31-.31.31s-.31-.14-.31-.31.14-.3.31-.3.31.14.31.3Z"/><path class="cls-15" d="m548.42,392.96c-.6,0-1.13-.2-1.54-.59l.29-.29c.37.35.74.5,1.24.5.64,0,1.08-.34,1.08-.83,0-.46-.43-.77-1.07-.77h-.35v-.37h.33c.53,0,.93-.35.93-.82,0-.43-.41-.76-.95-.76-.45,0-.78.14-1.16.51l-.29-.29c.41-.4.9-.61,1.46-.61.79,0,1.37.48,1.37,1.13,0,.43-.27.79-.72.97.53.15.89.53.89,1.01,0,.7-.64,1.21-1.52,1.21Z"/><path class="cls-15" d="m551.85,392.96c-.6,0-1.13-.2-1.54-.59l.29-.29c.37.35.74.5,1.24.5.64,0,1.08-.34,1.08-.83,0-.46-.43-.77-1.07-.77h-.35v-.37h.33c.53,0,.93-.35.93-.82,0-.43-.41-.76-.95-.76-.45,0-.78.14-1.16.51l-.29-.29c.41-.4.9-.61,1.46-.61.79,0,1.37.48,1.37,1.13,0,.43-.27.79-.72.97.53.15.89.53.89,1.01,0,.7-.64,1.21-1.52,1.21Z"/><path class="cls-15" d="m554.58,390.13c0,.17-.14.31-.31.31s-.31-.14-.31-.31.14-.31.31-.31.31.14.31.31Zm0,2.49c0,.17-.14.31-.31.31s-.31-.14-.31-.31.14-.3.31-.3.31.14.31.3Z"/><path class="cls-15" d="m555.14,390.8c0-1.27.71-2.16,1.71-2.16s1.71.89,1.71,2.16-.71,2.16-1.71,2.16-1.71-.89-1.71-2.16Zm2.99,0c0-1.07-.5-1.77-1.28-1.77s-1.27.7-1.27,1.77.5,1.76,1.27,1.76,1.28-.69,1.28-1.76Z"/><path class="cls-15" d="m561.36,389.09h-2.65v-.39h3.15v.34l-2.18,3.86h-.5l2.19-3.81Z"/><path class="cls-15" d="m562.22,392.63c0,.17-.14.31-.31.31s-.31-.14-.31-.31.14-.3.31-.3.31.14.31.3Z"/><path class="cls-15" d="m562.95,388.7h2.46v.38h-2.09l-.06,1.37c.28-.1.56-.16.87-.16.89,0,1.51.53,1.51,1.28,0,.82-.61,1.37-1.53,1.37-.58,0-1.08-.19-1.49-.57l.28-.29c.38.34.74.49,1.22.49.64,0,1.08-.4,1.08-.98,0-.55-.46-.94-1.14-.94-.31,0-.63.07-.94.19l-.26-.09.1-2.07Z"/><path class="cls-15" d="m568.86,391.4h.5v.38h-.5v1.12h-.44v-1.12h-2.39v-.35l2.36-2.73h.47v2.7Zm-.44,0v-2.14l-1.85,2.14h1.85Z"/><path class="cls-15" d="m569.76,391.76c0-.49.37-.91.91-1.07-.44-.17-.74-.53-.74-.97,0-.62.6-1.09,1.4-1.09s1.4.47,1.4,1.09c0,.43-.29.8-.74.97.54.17.91.58.91,1.07,0,.69-.66,1.19-1.57,1.19s-1.57-.5-1.57-1.19Zm2.7-.03c0-.48-.49-.85-1.13-.85s-1.13.37-1.13.85.49.86,1.13.86,1.13-.37,1.13-.86Zm-.16-1.99c0-.43-.42-.76-.97-.76s-.97.34-.97.76.42.76.97.76.97-.33.97-.76Z"/></g><g><path class="cls-15" d="m580.4,399.7h2.46v.38h-2.09l-.06,1.37c.28-.1.56-.16.87-.16.89,0,1.51.53,1.51,1.28,0,.82-.61,1.37-1.53,1.37-.58,0-1.08-.19-1.49-.57l.28-.29c.38.34.74.49,1.22.49.64,0,1.08-.4,1.08-.98,0-.55-.46-.94-1.14-.94-.31,0-.63.07-.94.19l-.26-.09.1-2.07Z"/><path class="cls-15" d="m584.08,403.63c0,.17-.14.31-.3.31s-.31-.14-.31-.31.14-.3.31-.3.3.14.3.3Z"/><path class="cls-15" d="m585.34,403.9h-.44v-3.74l-.71.31v-.4l.86-.37h.28v4.2Z"/><path class="cls-15" d="m586.25,399.7h2.46v.38h-2.09l-.06,1.37c.28-.1.56-.16.87-.16.89,0,1.51.53,1.51,1.28,0,.82-.61,1.37-1.53,1.37-.58,0-1.08-.19-1.49-.57l.28-.29c.38.34.74.49,1.22.49.64,0,1.08-.4,1.08-.98,0-.55-.46-.94-1.14-.94-.31,0-.63.07-.94.19l-.26-.09.1-2.07Z"/></g><path class="cls-15" d="m603.58,403.96c-.6,0-1.13-.2-1.54-.59l.29-.29c.37.35.74.5,1.24.5.64,0,1.08-.34,1.08-.83,0-.46-.43-.77-1.07-.77h-.35v-.37h.33c.53,0,.93-.35.93-.82,0-.43-.41-.76-.95-.76-.45,0-.78.14-1.16.51l-.29-.29c.41-.4.9-.61,1.46-.61.79,0,1.37.48,1.37,1.13,0,.43-.27.79-.72.97.53.15.89.53.89,1.01,0,.7-.64,1.21-1.52,1.21Z"/><g><path class="cls-15" d="m540.19,401.8c0-1.27.71-2.16,1.71-2.16s1.71.89,1.71,2.16-.71,2.16-1.71,2.16-1.71-.89-1.71-2.16Zm2.99,0c0-1.07-.5-1.77-1.28-1.77s-1.27.7-1.27,1.77.5,1.76,1.27,1.76,1.28-.69,1.28-1.76Z"/><path class="cls-15" d="m545.15,403.9h-.44v-3.74l-.71.31v-.4l.86-.37h.28v4.2Z"/><path class="cls-15" d="m546.47,401.13c0,.17-.14.31-.31.31s-.31-.14-.31-.31.14-.31.31-.31.31.14.31.31Zm0,2.49c0,.17-.14.31-.31.31s-.31-.14-.31-.31.14-.3.31-.3.31.14.31.3Z"/><path class="cls-15" d="m548.42,403.96c-.6,0-1.13-.2-1.54-.59l.29-.29c.37.35.74.5,1.24.5.64,0,1.08-.34,1.08-.83,0-.46-.43-.77-1.07-.77h-.35v-.37h.33c.53,0,.93-.35.93-.82,0-.43-.41-.76-.95-.76-.45,0-.78.14-1.16.51l-.29-.29c.41-.4.9-.61,1.46-.61.79,0,1.37.48,1.37,1.13,0,.43-.27.79-.72.97.53.15.89.53.89,1.01,0,.7-.64,1.21-1.52,1.21Z"/><path class="cls-15" d="m551.85,403.96c-.6,0-1.13-.2-1.54-.59l.29-.29c.37.35.74.5,1.24.5.64,0,1.08-.34,1.08-.83,0-.46-.43-.77-1.07-.77h-.35v-.37h.33c.53,0,.93-.35.93-.82,0-.43-.41-.76-.95-.76-.45,0-.78.14-1.16.51l-.29-.29c.41-.4.9-.61,1.46-.61.79,0,1.37.48,1.37,1.13,0,.43-.27.79-.72.97.53.15.89.53.89,1.01,0,.7-.64,1.21-1.52,1.21Z"/><path class="cls-15" d="m554.58,401.13c0,.17-.14.31-.31.31s-.31-.14-.31-.31.14-.31.31-.31.31.14.31.31Zm0,2.49c0,.17-.14.31-.31.31s-.31-.14-.31-.31.14-.3.31-.3.31.14.31.3Z"/><path class="cls-15" d="m555.14,401.8c0-1.27.71-2.16,1.71-2.16s1.71.89,1.71,2.16-.71,2.16-1.71,2.16-1.71-.89-1.71-2.16Zm2.99,0c0-1.07-.5-1.77-1.28-1.77s-1.27.7-1.27,1.77.5,1.76,1.27,1.76,1.28-.69,1.28-1.76Z"/><path class="cls-15" d="m559.11,402.76c0-.49.37-.91.91-1.07-.44-.17-.74-.53-.74-.97,0-.62.6-1.09,1.4-1.09s1.4.47,1.4,1.09c0,.43-.29.8-.74.97.54.17.91.58.91,1.07,0,.69-.66,1.19-1.57,1.19s-1.57-.5-1.57-1.19Zm2.7-.03c0-.48-.49-.85-1.13-.85s-1.13.37-1.13.85.49.86,1.13.86,1.13-.37,1.13-.86Zm-.16-1.99c0-.43-.42-.76-.97-.76s-.97.34-.97.76.42.76.97.76.97-.33.97-.76Z"/><path class="cls-15" d="m563.27,403.63c0,.17-.14.31-.31.31s-.31-.14-.31-.31.14-.3.31-.3.31.14.31.3Z"/><path class="cls-15" d="m565.17,403.96c-.6,0-1.13-.2-1.54-.59l.29-.29c.37.35.74.5,1.24.5.64,0,1.08-.34,1.08-.83,0-.46-.43-.77-1.07-.77h-.35v-.37h.33c.53,0,.93-.35.93-.82,0-.43-.41-.76-.95-.76-.45,0-.78.14-1.16.51l-.29-.29c.41-.4.9-.61,1.46-.61.79,0,1.37.48,1.37,1.13,0,.43-.27.79-.72.97.53.15.89.53.89,1.01,0,.7-.64,1.21-1.52,1.21Z"/><path class="cls-15" d="m568.61,403.96c-.6,0-1.13-.2-1.54-.59l.29-.29c.37.35.74.5,1.24.5.63,0,1.08-.34,1.08-.83,0-.46-.43-.77-1.07-.77h-.35v-.37h.33c.53,0,.93-.35.93-.82,0-.43-.41-.76-.95-.76-.45,0-.78.14-1.16.51l-.29-.29c.41-.4.9-.61,1.46-.61.79,0,1.37.48,1.37,1.13,0,.43-.27.79-.72.97.53.15.89.53.89,1.01,0,.7-.64,1.21-1.52,1.21Z"/><path class="cls-15" d="m571.65,403.9h-.44v-3.74l-.71.31v-.4l.86-.37h.28v4.2Z"/></g><g><path class="cls-15" d="m580.4,411.7h2.46v.38h-2.09l-.06,1.37c.28-.1.56-.16.87-.16.89,0,1.51.53,1.51,1.28,0,.82-.61,1.37-1.53,1.37-.58,0-1.08-.19-1.49-.57l.28-.29c.38.34.74.49,1.22.49.64,0,1.08-.4,1.08-.98,0-.55-.46-.94-1.14-.94-.31,0-.63.07-.94.19l-.26-.09.1-2.07Z"/><path class="cls-15" d="m584.08,415.63c0,.17-.14.31-.3.31s-.31-.14-.31-.31.14-.3.31-.3.3.14.3.3Z"/><path class="cls-15" d="m585.99,415.96c-.6,0-1.13-.2-1.54-.59l.29-.29c.37.35.74.5,1.24.5.64,0,1.08-.34,1.08-.83,0-.46-.43-.77-1.07-.77h-.35v-.37h.33c.53,0,.93-.35.93-.82,0-.43-.41-.76-.95-.76-.45,0-.78.14-1.16.51l-.29-.29c.41-.4.9-.61,1.46-.61.79,0,1.37.48,1.37,1.13,0,.43-.27.79-.72.97.53.15.89.53.89,1.01,0,.7-.64,1.21-1.52,1.21Z"/><path class="cls-15" d="m587.94,415.57l1.59-1.53c.56-.55.73-.81.73-1.19,0-.48-.41-.83-.96-.83-.41,0-.73.14-1.16.52l-.26-.31c.46-.4.92-.59,1.43-.59.81,0,1.39.5,1.39,1.19,0,.5-.18.81-.87,1.46l-1.28,1.22h2.22v.38h-2.83v-.32Z"/></g><path class="cls-15" d="m602.4,411.7h2.46v.38h-2.09l-.06,1.37c.28-.1.56-.16.87-.16.89,0,1.51.53,1.51,1.28,0,.82-.61,1.37-1.53,1.37-.58,0-1.08-.19-1.49-.57l.28-.29c.38.34.74.49,1.22.49.64,0,1.08-.4,1.08-.98,0-.55-.46-.94-1.14-.94-.31,0-.63.07-.94.19l-.26-.09.1-2.07Z"/><g><path class="cls-15" d="m540.19,413.8c0-1.27.71-2.16,1.71-2.16s1.71.89,1.71,2.16-.71,2.16-1.71,2.16-1.71-.89-1.71-2.16Zm2.99,0c0-1.07-.5-1.77-1.28-1.77s-1.27.7-1.27,1.77.5,1.76,1.27,1.76,1.28-.69,1.28-1.76Z"/><path class="cls-15" d="m545.15,415.9h-.44v-3.74l-.71.31v-.4l.86-.37h.28v4.2Z"/><path class="cls-15" d="m546.47,413.13c0,.17-.14.31-.31.31s-.31-.14-.31-.31.14-.31.31-.31.31.14.31.31Zm0,2.49c0,.17-.14.31-.31.31s-.31-.14-.31-.31.14-.3.31-.3.31.14.31.3Z"/><path class="cls-15" d="m548.42,415.96c-.6,0-1.13-.2-1.54-.59l.29-.29c.37.35.74.5,1.24.5.64,0,1.08-.34,1.08-.83,0-.46-.43-.77-1.07-.77h-.35v-.37h.33c.53,0,.93-.35.93-.82,0-.43-.41-.76-.95-.76-.45,0-.78.14-1.16.51l-.29-.29c.41-.4.9-.61,1.46-.61.79,0,1.37.48,1.37,1.13,0,.43-.27.79-.72.97.53.15.89.53.89,1.01,0,.7-.64,1.21-1.52,1.21Z"/><path class="cls-15" d="m551.85,415.96c-.6,0-1.13-.2-1.54-.59l.29-.29c.37.35.74.5,1.24.5.64,0,1.08-.34,1.08-.83,0-.46-.43-.77-1.07-.77h-.35v-.37h.33c.53,0,.93-.35.93-.82,0-.43-.41-.76-.95-.76-.45,0-.78.14-1.16.51l-.29-.29c.41-.4.9-.61,1.46-.61.79,0,1.37.48,1.37,1.13,0,.43-.27.79-.72.97.53.15.89.53.89,1.01,0,.7-.64,1.21-1.52,1.21Z"/><path class="cls-15" d="m554.58,413.13c0,.17-.14.31-.31.31s-.31-.14-.31-.31.14-.31.31-.31.31.14.31.31Zm0,2.49c0,.17-.14.31-.31.31s-.31-.14-.31-.31.14-.3.31-.3.31.14.31.3Z"/><path class="cls-15" d="m555.14,413.8c0-1.27.71-2.16,1.71-2.16s1.71.89,1.71,2.16-.71,2.16-1.71,2.16-1.71-.89-1.71-2.16Zm2.99,0c0-1.07-.5-1.77-1.28-1.77s-1.27.7-1.27,1.77.5,1.76,1.27,1.76,1.28-.69,1.28-1.76Z"/><path class="cls-15" d="m562.18,413.65c0,1.4-.78,2.31-1.95,2.31-.37,0-.73-.1-1.01-.28l.21-.34c.25.14.53.22.81.22.9,0,1.46-.68,1.49-1.83-.31.37-.79.6-1.28.6-.84,0-1.45-.55-1.45-1.31s.62-1.37,1.47-1.37c1,0,1.7.82,1.7,2Zm-.46-.31c-.1-.79-.58-1.31-1.24-1.31-.59,0-1.03.41-1.03.97s.44.96,1.08.96c.44,0,.88-.23,1.18-.62Z"/><path class="cls-15" d="m563.19,415.63c0,.17-.14.31-.31.31s-.31-.14-.31-.31.14-.3.31-.3.31.14.31.3Z"/><path class="cls-15" d="m563.91,411.7h2.46v.38h-2.09l-.06,1.37c.28-.1.56-.16.87-.16.89,0,1.5.53,1.5,1.28,0,.82-.61,1.37-1.53,1.37-.58,0-1.08-.19-1.49-.57l.28-.29c.38.34.74.49,1.22.49.64,0,1.08-.4,1.08-.98,0-.55-.46-.94-1.14-.94-.31,0-.63.07-.94.19l-.26-.09.1-2.07Z"/><path class="cls-15" d="m569.82,414.4h.5v.38h-.5v1.12h-.44v-1.12h-2.39v-.35l2.36-2.73h.47v2.7Zm-.44,0v-2.14l-1.85,2.14h1.85Z"/><path class="cls-15" d="m570.66,415.57l1.59-1.53c.56-.55.73-.81.73-1.19,0-.48-.41-.83-.96-.83-.41,0-.73.14-1.16.52l-.26-.31c.46-.4.92-.59,1.43-.59.81,0,1.38.5,1.38,1.19,0,.5-.18.81-.87,1.46l-1.28,1.22h2.22v.38h-2.82v-.32Z"/></g><g class="cls-18"><path class="cls-15" d="m534.15,234.42c-1.62,0-2.89-1.27-2.89-2.89s1.27-2.89,2.89-2.89,2.88,1.27,2.88,2.89-1.27,2.89-2.88,2.89Zm0-5.21c-1.28,0-2.26,1.01-2.26,2.32s.98,2.32,2.26,2.32,2.25-1.02,2.25-2.32-.98-2.32-2.25-2.32Z"/><path class="cls-15" d="m537.89,230.33h.59v.57c.24-.42.63-.66,1.12-.66.15,0,.26.02.38.06v.54c-.14-.05-.28-.07-.42-.07-.5,0-.87.29-1.08.82v2.74h-.59v-4.01Z"/><path class="cls-15" d="m540.55,229.16c0-.22.18-.4.4-.4s.4.18.4.4-.18.4-.4.4-.4-.18-.4-.4Zm.7,5.17h-.59v-4.01h.59v4.01Z"/><path class="cls-15" d="m542.07,232.31c0-1.15.88-2.05,2.02-2.05.46,0,.9.17,1.26.47v-.4h.58v4.1c0,1.02-.62,1.59-1.73,1.59-.56,0-1.12-.15-1.57-.42l.26-.46c.48.26.87.37,1.29.37.76,0,1.16-.37,1.16-1.07v-.54c-.36.3-.8.46-1.27.46-1.11,0-2-.9-2-2.05Zm2.05,1.54c.51,0,.95-.2,1.22-.55v-1.97c-.27-.34-.72-.54-1.22-.54-.83,0-1.46.66-1.46,1.53s.64,1.54,1.46,1.54Z"/><path class="cls-15" d="m546.84,229.16c0-.22.18-.4.4-.4s.4.18.4.4-.18.4-.4.4-.4-.18-.4-.4Zm.7,5.17h-.59v-4.01h.59v4.01Z"/><path class="cls-15" d="m548.55,230.33h.59v.47c.31-.37.74-.55,1.26-.55.91,0,1.54.63,1.54,1.55v2.53h-.58v-2.41c0-.71-.43-1.15-1.12-1.15-.48,0-.86.22-1.1.62v2.95h-.59v-4.01Z"/><path class="cls-15" d="m554.29,228.73h4.66v.55h-2.02v5.05h-.62v-5.05h-2.02v-.55Z"/><path class="cls-15" d="m559.49,229.16c0-.22.18-.4.4-.4s.4.18.4.4-.18.4-.4.4-.4-.18-.4-.4Zm.7,5.17h-.59v-4.01h.59v4.01Z"/><path class="cls-15" d="m561.2,230.33h.59v.44c.3-.34.7-.52,1.17-.52.56,0,1.02.28,1.26.73.33-.49.79-.73,1.38-.73.87,0,1.47.63,1.47,1.55v2.53h-.58v-2.41c0-.71-.4-1.15-1.04-1.15-.44,0-.81.22-1.06.66.02.12.04.24.04.38v2.53h-.58v-2.41c0-.71-.4-1.15-1.03-1.15-.43,0-.78.2-1.02.58v2.98h-.59v-4.01Z"/><path class="cls-15" d="m569.95,234.4c-1.16,0-2.06-.9-2.06-2.08s.87-2.06,1.98-2.06,1.89.91,1.89,2.06v.18h-3.29c.09.79.71,1.38,1.5,1.38.42,0,.83-.14,1.1-.37l.37.39c-.45.34-.92.5-1.5.5Zm-1.46-2.37h2.68c-.1-.71-.66-1.26-1.32-1.26s-1.25.52-1.36,1.26Z"/></g><g class="cls-18"><path class="cls-15" d="m532.53,285.73h2.43c1.1,0,1.81.64,1.81,1.62s-.72,1.62-1.81,1.62h-1.81v2.36h-.62v-5.6Zm.62.55v2.15h1.77c.76,0,1.24-.42,1.24-1.08s-.48-1.07-1.24-1.07h-1.77Z"/><path class="cls-15" d="m537.49,286.16c0-.22.18-.4.4-.4s.4.18.4.4-.18.4-.4.4-.4-.18-.4-.4Zm.7,5.17h-.59v-4.01h.59v4.01Z"/><path class="cls-15" d="m542.23,290.36l.37.4c-.42.41-.98.64-1.55.64-1.14,0-2.04-.91-2.04-2.08s.9-2.08,2.04-2.08c.58,0,1.15.23,1.57.63l-.38.43c-.32-.33-.75-.52-1.18-.52-.82,0-1.46.68-1.46,1.54s.65,1.54,1.47,1.54c.43,0,.82-.17,1.17-.5Z"/><path class="cls-15" d="m543.3,285.73l.59-.14v3.53l2.09-1.81h.72l-2.2,1.9,2.3,2.1h-.81l-2.11-1.92v1.92h-.59v-5.6Z"/><path class="cls-15" d="m547.14,290.4c.37.34.83.54,1.3.54.64,0,1.09-.3,1.09-.72,0-.34-.23-.54-.74-.61l-.7-.1c-.8-.12-1.18-.47-1.18-1.08,0-.67.62-1.17,1.5-1.17.58,0,1.08.17,1.58.53l-.31.4c-.45-.3-.86-.45-1.3-.45-.55,0-.93.27-.93.66,0,.34.21.51.74.59l.7.1c.8.11,1.2.47,1.2,1.09,0,.7-.7,1.22-1.62,1.22-.66,0-1.26-.22-1.69-.62l.36-.38Z"/></g><g class="cls-18"><path class="cls-15" d="m532.11,366.45v4.89h-.58v-5.6h.86l1.91,3.97,1.9-3.97h.86v5.6h-.58v-4.89l-2.19,4.49-2.19-4.49Z"/><path class="cls-15" d="m537.9,370.2c0-.75.62-1.22,1.6-1.22.42,0,.83.1,1.18.27v-.53c0-.64-.37-.97-1.06-.97-.39,0-.78.1-1.25.35l-.22-.46c.58-.28,1.05-.4,1.54-.4,1.02,0,1.58.5,1.58,1.39v2.7h-.58v-.39c-.36.31-.79.46-1.3.46-.88,0-1.48-.49-1.48-1.21Zm1.58.74c.48,0,.87-.14,1.19-.46v-.75c-.33-.22-.7-.32-1.16-.32-.64,0-1.05.3-1.05.78s.42.76,1.02.76Z"/><path class="cls-15" d="m542.06,369.31c0-1.15.88-2.05,2.01-2.05.46,0,.9.17,1.26.47v-.4h.58v4.1c0,1.02-.62,1.59-1.73,1.59-.56,0-1.12-.15-1.57-.42l.26-.46c.48.26.87.37,1.29.37.76,0,1.16-.37,1.16-1.07v-.54c-.36.3-.8.46-1.27.46-1.11,0-2-.9-2-2.05Zm2.05,1.54c.51,0,.95-.2,1.22-.55v-1.97c-.27-.34-.72-.54-1.22-.54-.83,0-1.46.66-1.46,1.53s.64,1.54,1.46,1.54Z"/><path class="cls-15" d="m546.93,367.33h.59v.47c.31-.37.74-.55,1.26-.55.91,0,1.54.63,1.54,1.55v2.54h-.58v-2.42c0-.71-.43-1.15-1.12-1.15-.48,0-.86.22-1.1.62v2.95h-.59v-4.01Z"/><path class="cls-15" d="m551.22,366.16c0-.22.18-.4.4-.4s.4.18.4.4-.18.4-.4.4-.4-.18-.4-.4Zm.7,5.17h-.59v-4.01h.59v4.01Z"/><path class="cls-15" d="m553.42,367.83h-.86v-.5h.86v-1.02l.58-.15v1.17h1.21v.5h-1.21v2.45c0,.43.18.6.62.6.22,0,.38-.02.58-.1v.52c-.21.07-.47.1-.7.1-.7,0-1.08-.33-1.08-.97v-2.61Z"/><path class="cls-15" d="m556.41,369.74c0,.71.43,1.15,1.12,1.15.48,0,.86-.22,1.1-.62v-2.94h.59v4.01h-.59v-.46c-.31.36-.74.54-1.25.54-.92,0-1.55-.63-1.55-1.55v-2.53h.58v2.41Z"/><path class="cls-15" d="m563.36,370.91c-.34.32-.79.49-1.3.49-1.13,0-2.01-.9-2.01-2.07s.88-2.06,2.02-2.06c.46,0,.92.16,1.28.46v-1.98l.59-.14v5.73h-.58v-.42Zm-1.24-.03c.5,0,.95-.21,1.23-.56v-1.98c-.28-.34-.74-.55-1.23-.55-.84,0-1.49.66-1.49,1.54s.65,1.56,1.49,1.56Z"/><path class="cls-15" d="m566.83,371.4c-1.16,0-2.06-.9-2.06-2.08s.87-2.06,1.97-2.06,1.89.91,1.89,2.06v.18h-3.29c.09.79.71,1.38,1.5,1.38.42,0,.83-.14,1.1-.37l.37.39c-.45.34-.92.5-1.5.5Zm-1.46-2.37h2.68c-.1-.71-.66-1.26-1.32-1.26-.7,0-1.25.52-1.36,1.26Z"/><path class="cls-15" d="m575.74,370.08l.4.42c-.56.58-1.35.92-2.2.92-1.63,0-2.9-1.27-2.9-2.89s1.27-2.89,2.9-2.89c.87,0,1.67.34,2.21.92l-.41.43c-.44-.5-1.12-.78-1.81-.78-1.3,0-2.28,1.01-2.28,2.32s.99,2.32,2.29,2.32c.7,0,1.36-.29,1.78-.77Z"/><path class="cls-15" d="m576.75,370.2c0-.75.62-1.22,1.6-1.22.42,0,.83.1,1.18.27v-.53c0-.64-.37-.97-1.06-.97-.39,0-.78.1-1.25.35l-.22-.46c.58-.28,1.05-.4,1.54-.4,1.02,0,1.58.5,1.58,1.39v2.7h-.58v-.39c-.36.31-.79.46-1.3.46-.88,0-1.48-.49-1.48-1.21Zm1.58.74c.48,0,.87-.14,1.19-.46v-.75c-.33-.22-.7-.32-1.16-.32-.64,0-1.05.3-1.05.78s.42.76,1.02.76Z"/><path class="cls-15" d="m581.68,371.33h-.59v-5.6l.59-.14v5.73Z"/><path class="cls-15" d="m585.73,370.36l.37.4c-.42.41-.97.64-1.55.64-1.14,0-2.04-.91-2.04-2.08s.9-2.08,2.04-2.08c.58,0,1.15.23,1.57.63l-.38.43c-.32-.33-.75-.52-1.18-.52-.82,0-1.46.68-1.46,1.54s.65,1.54,1.47,1.54c.43,0,.82-.17,1.17-.5Z"/><path class="cls-15" d="m587.36,369.74c0,.71.43,1.15,1.12,1.15.48,0,.86-.22,1.1-.62v-2.94h.59v4.01h-.59v-.46c-.31.36-.74.54-1.25.54-.92,0-1.55-.63-1.55-1.55v-2.53h.58v2.41Z"/><path class="cls-15" d="m591.78,371.33h-.59v-5.6l.59-.14v5.73Z"/><path class="cls-15" d="m592.57,370.2c0-.75.62-1.22,1.6-1.22.42,0,.83.1,1.18.27v-.53c0-.64-.37-.97-1.06-.97-.39,0-.78.1-1.25.35l-.22-.46c.58-.28,1.05-.4,1.54-.4,1.02,0,1.58.5,1.58,1.39v2.7h-.58v-.39c-.36.31-.79.46-1.3.46-.88,0-1.48-.49-1.48-1.21Zm1.58.74c.48,0,.87-.14,1.19-.46v-.75c-.33-.22-.7-.32-1.16-.32-.64,0-1.05.3-1.05.78s.42.76,1.02.76Z"/><path class="cls-15" d="m597.25,367.83h-.86v-.5h.86v-1.02l.58-.15v1.17h1.21v.5h-1.21v2.45c0,.43.18.6.62.6.22,0,.38-.02.58-.1v.52c-.21.07-.47.1-.7.1-.7,0-1.08-.33-1.08-.97v-2.61Z"/><path class="cls-15" d="m599.57,366.16c0-.22.18-.4.4-.4s.4.18.4.4-.18.4-.4.4-.4-.18-.4-.4Zm.7,5.17h-.59v-4.01h.59v4.01Z"/><path class="cls-15" d="m603.14,367.25c1.14,0,2.04.91,2.04,2.08s-.9,2.09-2.04,2.09-2.05-.91-2.05-2.09.9-2.08,2.05-2.08Zm1.46,2.08c0-.87-.64-1.55-1.46-1.55s-1.46.68-1.46,1.55.64,1.56,1.46,1.56,1.46-.69,1.46-1.56Z"/><path class="cls-15" d="m606,367.33h.59v.47c.31-.37.74-.55,1.26-.55.91,0,1.54.63,1.54,1.55v2.54h-.58v-2.42c0-.71-.43-1.15-1.12-1.15-.48,0-.86.22-1.1.62v2.95h-.59v-4.01Z"/></g><g class="cls-18"><path class="cls-15" d="m236.96,166.34v4.28h-.5v-4.9h.76l1.67,3.48,1.67-3.48h.76v4.9h-.51v-4.29l-1.92,3.94-1.92-3.93Z"/><path class="cls-15" d="m242.03,169.62c0-.66.54-1.07,1.4-1.07.37,0,.73.08,1.03.24v-.46c0-.56-.32-.85-.93-.85-.34,0-.68.09-1.1.31l-.2-.4c.5-.25.92-.35,1.34-.35.89,0,1.39.43,1.39,1.22v2.36h-.5v-.34c-.32.27-.69.41-1.13.41-.77,0-1.3-.43-1.3-1.06Zm1.39.65c.42,0,.76-.13,1.04-.41v-.66c-.29-.2-.61-.28-1.02-.28-.56,0-.92.27-.92.68,0,.39.36.67.89.67Z"/><path class="cls-15" d="m245.67,168.84c0-1.01.77-1.8,1.76-1.8.4,0,.78.15,1.11.41v-.35h.51v3.59c0,.9-.54,1.39-1.51,1.39-.49,0-.98-.13-1.37-.36l.22-.41c.42.22.76.32,1.13.32.67,0,1.02-.32,1.02-.94v-.47c-.31.27-.7.41-1.11.41-.97,0-1.75-.78-1.75-1.8Zm1.79,1.34c.45,0,.83-.18,1.07-.48v-1.72c-.24-.3-.63-.48-1.07-.48-.73,0-1.28.58-1.28,1.34s.56,1.34,1.28,1.34Z"/><path class="cls-15" d="m249.93,167.11h.52v.41c.27-.32.65-.48,1.11-.48.8,0,1.35.55,1.35,1.36v2.22h-.51v-2.12c0-.62-.38-1.01-.98-1.01-.42,0-.76.2-.97.54v2.58h-.52v-3.51Z"/><path class="cls-15" d="m253.68,166.08c0-.2.16-.35.35-.35s.35.15.35.35-.15.35-.35.35-.35-.16-.35-.35Zm.61,4.53h-.52v-3.51h.52v3.51Z"/><path class="cls-15" d="m255.61,167.55h-.76v-.44h.76v-.89l.51-.13v1.02h1.06v.44h-1.06v2.15c0,.38.15.53.54.53.2,0,.34-.02.51-.09v.46c-.18.06-.41.09-.62.09-.61,0-.95-.29-.95-.85v-2.28Z"/><path class="cls-15" d="m258.22,169.22c0,.62.38,1.01.98,1.01.42,0,.76-.2.97-.55v-2.58h.52v3.51h-.52v-.41c-.27.32-.64.48-1.1.48-.81,0-1.36-.55-1.36-1.36v-2.22h.51v2.12Z"/><path class="cls-15" d="m264.31,170.24c-.3.28-.69.43-1.13.43-.99,0-1.76-.79-1.76-1.81s.77-1.81,1.77-1.81c.41,0,.81.14,1.12.4v-1.74l.52-.12v5.02h-.51v-.37Zm-1.09-.03c.44,0,.83-.18,1.08-.49v-1.74c-.25-.3-.64-.48-1.08-.48-.74,0-1.3.57-1.3,1.34s.57,1.37,1.3,1.37Z"/><path class="cls-15" d="m267.35,170.68c-1.02,0-1.81-.79-1.81-1.82s.76-1.81,1.73-1.81,1.66.8,1.66,1.81v.16h-2.88c.08.69.62,1.2,1.32,1.2.36,0,.73-.12.97-.32l.32.34c-.39.29-.81.43-1.31.43Zm-1.28-2.07h2.35c-.09-.62-.57-1.1-1.16-1.1s-1.09.46-1.19,1.1Z"/></g><g class="cls-18"><path class="cls-15" d="m305.53,165.73h.62v5.05h3.33v.55h-3.95v-5.6Z"/><path class="cls-15" d="m310.04,170.2c0-.75.62-1.22,1.6-1.22.42,0,.83.1,1.18.27v-.53c0-.64-.37-.97-1.06-.97-.39,0-.78.1-1.26.35l-.22-.46c.58-.28,1.05-.4,1.54-.4,1.02,0,1.58.5,1.58,1.39v2.69h-.58v-.39c-.36.31-.79.46-1.3.46-.88,0-1.48-.49-1.48-1.21Zm1.58.74c.48,0,.87-.14,1.19-.46v-.75c-.33-.22-.7-.32-1.16-.32-.64,0-1.05.3-1.05.78s.42.76,1.02.76Z"/><path class="cls-15" d="m314.71,167.83h-.86v-.5h.86v-1.02l.58-.15v1.17h1.21v.5h-1.21v2.45c0,.43.18.6.62.6.22,0,.38-.02.58-.1v.52c-.21.07-.47.1-.7.1-.7,0-1.08-.34-1.08-.97v-2.61Z"/><path class="cls-15" d="m317.03,166.16c0-.22.18-.4.4-.4s.4.18.4.4-.18.4-.4.4-.4-.18-.4-.4Zm.7,5.17h-.59v-4.01h.59v4.01Z"/><path class="cls-15" d="m319.23,167.83h-.86v-.5h.86v-1.02l.58-.15v1.17h1.21v.5h-1.21v2.45c0,.43.18.6.62.6.22,0,.38-.02.58-.1v.52c-.21.07-.47.1-.7.1-.7,0-1.08-.34-1.08-.97v-2.61Z"/><path class="cls-15" d="m322.23,169.74c0,.71.43,1.15,1.12,1.15.48,0,.86-.22,1.1-.62v-2.94h.59v4.01h-.59v-.46c-.31.36-.74.54-1.25.54-.92,0-1.55-.63-1.55-1.55v-2.53h.58v2.41Z"/><path class="cls-15" d="m329.18,170.91c-.34.32-.79.49-1.29.49-1.13,0-2.02-.9-2.02-2.07s.88-2.06,2.02-2.06c.46,0,.92.16,1.28.46v-1.98l.59-.14v5.73h-.58v-.42Zm-1.24-.03c.5,0,.95-.21,1.23-.56v-1.98c-.28-.34-.74-.55-1.23-.55-.84,0-1.49.66-1.49,1.54s.65,1.56,1.49,1.56Z"/><path class="cls-15" d="m332.65,171.4c-1.16,0-2.06-.9-2.06-2.08s.87-2.06,1.98-2.06,1.89.91,1.89,2.06v.18h-3.29c.09.79.71,1.38,1.5,1.38.42,0,.83-.14,1.1-.37l.37.39c-.45.34-.92.5-1.5.5Zm-1.46-2.37h2.68c-.1-.71-.66-1.26-1.32-1.26s-1.25.52-1.36,1.26Z"/></g><g class="cls-18"><path class="cls-15" d="m349.53,165.73h.62v5.05h3.33v.55h-3.95v-5.6Z"/><path class="cls-15" d="m355.89,167.25c1.14,0,2.04.91,2.04,2.08s-.9,2.09-2.04,2.09-2.05-.91-2.05-2.09.9-2.08,2.05-2.08Zm1.46,2.08c0-.87-.64-1.55-1.46-1.55s-1.46.68-1.46,1.55.64,1.56,1.46,1.56,1.46-.69,1.46-1.56Z"/><path class="cls-15" d="m358.75,167.33h.59v.47c.31-.37.74-.55,1.26-.55.91,0,1.54.63,1.54,1.55v2.53h-.58v-2.41c0-.71-.43-1.15-1.12-1.15-.48,0-.86.22-1.1.62v2.95h-.59v-4.01Z"/><path class="cls-15" d="m362.96,169.31c0-1.15.88-2.05,2.01-2.05.46,0,.9.17,1.26.47v-.4h.58v4.1c0,1.02-.62,1.59-1.73,1.59-.56,0-1.12-.15-1.57-.42l.26-.46c.48.26.87.37,1.29.37.76,0,1.16-.37,1.16-1.07v-.54c-.36.3-.8.46-1.27.46-1.11,0-2-.9-2-2.05Zm2.05,1.54c.51,0,.95-.2,1.22-.55v-1.97c-.27-.34-.72-.54-1.22-.54-.83,0-1.46.66-1.46,1.53s.64,1.54,1.46,1.54Z"/><path class="cls-15" d="m367.73,166.16c0-.22.18-.4.4-.4s.4.18.4.4-.18.4-.4.4-.4-.18-.4-.4Zm.7,5.17h-.59v-4.01h.59v4.01Z"/><path class="cls-15" d="m369.93,167.83h-.86v-.5h.86v-1.02l.58-.15v1.17h1.21v.5h-1.21v2.45c0,.43.18.6.62.6.22,0,.38-.02.58-.1v.52c-.21.07-.47.1-.7.1-.7,0-1.08-.34-1.08-.97v-2.61Z"/><path class="cls-15" d="m372.92,169.74c0,.71.43,1.15,1.12,1.15.48,0,.86-.22,1.1-.62v-2.94h.59v4.01h-.59v-.46c-.31.36-.74.54-1.26.54-.92,0-1.55-.63-1.55-1.55v-2.53h.58v2.41Z"/><path class="cls-15" d="m379.87,170.91c-.34.32-.79.49-1.29.49-1.13,0-2.02-.9-2.02-2.07s.88-2.06,2.02-2.06c.46,0,.92.16,1.28.46v-1.98l.59-.14v5.73h-.58v-.42Zm-1.24-.03c.5,0,.95-.21,1.23-.56v-1.98c-.28-.34-.74-.55-1.23-.55-.84,0-1.49.66-1.49,1.54s.65,1.56,1.49,1.56Z"/><path class="cls-15" d="m383.35,171.4c-1.16,0-2.06-.9-2.06-2.08s.87-2.06,1.97-2.06,1.9.91,1.9,2.06v.18h-3.29c.09.79.71,1.38,1.5,1.38.42,0,.83-.14,1.1-.37l.37.39c-.45.34-.92.5-1.5.5Zm-1.46-2.37h2.68c-.1-.71-.66-1.26-1.32-1.26s-1.25.52-1.36,1.26Z"/></g><g class="cls-18"><path class="cls-15" d="m412.53,165.73h1.85c1.7,0,2.94,1.18,2.94,2.8s-1.23,2.8-2.94,2.8h-1.85v-5.6Zm.62.56v4.48h1.26c1.29,0,2.29-.97,2.29-2.24s-.99-2.24-2.29-2.24h-1.26Z"/><path class="cls-15" d="m420.06,171.4c-1.16,0-2.06-.9-2.06-2.08s.87-2.06,1.98-2.06,1.89.91,1.89,2.06v.18h-3.29c.09.79.71,1.38,1.5,1.38.42,0,.83-.14,1.1-.37l.37.39c-.45.34-.92.5-1.5.5Zm-1.46-2.37h2.68c-.1-.71-.66-1.26-1.32-1.26s-1.25.52-1.36,1.26Z"/><path class="cls-15" d="m422.69,167.33h.58v.43c.34-.33.79-.5,1.3-.5,1.14,0,2.01.9,2.01,2.06s-.88,2.07-2.02,2.07c-.47,0-.92-.17-1.28-.46v2.04h-.59v-5.65Zm.59,1.02v1.98c.28.34.74.55,1.23.55.85,0,1.49-.66,1.49-1.54s-.65-1.55-1.49-1.55c-.5,0-.95.21-1.23.56Z"/><path class="cls-15" d="m427.62,167.83h-.86v-.5h.86v-1.02l.58-.15v1.17h1.21v.5h-1.21v2.45c0,.43.18.6.62.6.22,0,.38-.02.58-.1v.52c-.21.07-.47.1-.7.1-.7,0-1.08-.34-1.08-.97v-2.61Z"/><path class="cls-15" d="m430.04,165.73l.59-.14v2.2c.31-.37.74-.55,1.26-.55.91,0,1.54.63,1.54,1.55v2.53h-.58v-2.41c0-.71-.43-1.15-1.12-1.15-.48,0-.86.22-1.1.62v2.95h-.59v-5.6Z"/></g><g><path class="cls-15" d="m115.53,181.73h4.01v.54h-3.39v2h2.22v.54h-2.22v2.52h-.62v-5.6Z"/><path class="cls-15" d="m121.5,187.4c-1.16,0-2.06-.9-2.06-2.08s.87-2.06,1.98-2.06,1.89.91,1.89,2.06v.18h-3.29c.09.79.71,1.38,1.5,1.38.42,0,.83-.14,1.1-.37l.37.39c-.45.34-.92.5-1.5.5Zm-1.46-2.37h2.68c-.1-.71-.66-1.26-1.32-1.26s-1.25.52-1.36,1.26Z"/><path class="cls-15" d="m126,187.4c-.47,0-.93-.17-1.29-.46v.4h-.58v-5.6l.59-.14v2.15c.34-.32.78-.49,1.29-.49,1.14,0,2.01.9,2.01,2.06s-.88,2.07-2.02,2.07Zm-1.28-3.05v1.98c.28.34.74.55,1.23.55.85,0,1.49-.66,1.49-1.54s-.65-1.55-1.49-1.55c-.5,0-.95.21-1.23.56Z"/><path class="cls-15" d="m130.43,185.82c0-.66.49-1.21,1.21-1.43-.59-.22-.98-.71-.98-1.29,0-.83.8-1.46,1.86-1.46s1.87.62,1.87,1.46c0,.58-.39,1.06-.98,1.29.72.22,1.21.78,1.21,1.43,0,.92-.88,1.59-2.09,1.59s-2.09-.67-2.09-1.59Zm3.6-.04c0-.64-.66-1.14-1.51-1.14s-1.51.5-1.51,1.14.66,1.15,1.51,1.15,1.51-.5,1.51-1.15Zm-.22-2.65c0-.57-.56-1.02-1.3-1.02s-1.29.45-1.29,1.02.56,1.01,1.29,1.01,1.3-.44,1.3-1.01Z"/><path class="cls-15" d="m136.03,186.74l-.64,1.69h-.46l.46-1.69h.64Z"/><path class="cls-15" d="m138.38,186.9l2.12-2.04c.74-.73.97-1.08.97-1.58,0-.64-.54-1.1-1.28-1.1-.55,0-.98.19-1.55.69l-.34-.41c.61-.54,1.22-.79,1.9-.79,1.08,0,1.85.66,1.85,1.58,0,.66-.24,1.08-1.16,1.95l-1.7,1.62h2.97v.51h-3.77v-.43Z"/><path class="cls-15" d="m142.78,184.53c0-1.7.94-2.88,2.28-2.88s2.29,1.18,2.29,2.88-.94,2.88-2.29,2.88-2.28-1.18-2.28-2.88Zm3.98,0c0-1.43-.66-2.36-1.7-2.36s-1.7.93-1.7,2.36.66,2.35,1.7,2.35,1.7-.92,1.7-2.35Z"/><path class="cls-15" d="m147.78,186.9l2.12-2.04c.74-.73.97-1.08.97-1.58,0-.64-.54-1.1-1.28-1.1-.55,0-.98.19-1.55.69l-.34-.41c.61-.54,1.22-.79,1.9-.79,1.08,0,1.85.66,1.85,1.58,0,.66-.24,1.08-1.16,1.95l-1.7,1.62h2.97v.51h-3.77v-.43Z"/><path class="cls-15" d="m154.04,187.41c-.8,0-1.5-.27-2.05-.79l.39-.38c.49.46.99.66,1.65.66.85,0,1.44-.46,1.44-1.11,0-.61-.58-1.03-1.42-1.03h-.47v-.49h.44c.71,0,1.24-.47,1.24-1.1,0-.58-.54-1.01-1.26-1.01-.6,0-1.04.19-1.54.68l-.39-.39c.55-.54,1.2-.81,1.95-.81,1.06,0,1.83.64,1.83,1.51,0,.57-.36,1.05-.96,1.3.71.2,1.18.71,1.18,1.35,0,.93-.85,1.61-2.03,1.61Z"/><path class="cls-15" d="m157.51,186.74l-.64,1.69h-.46l.46-1.69h.64Z"/><path class="cls-15" d="m159.93,184.53c0-1.7.94-2.88,2.28-2.88s2.29,1.18,2.29,2.88-.94,2.88-2.29,2.88-2.28-1.18-2.28-2.88Zm3.98,0c0-1.43-.66-2.36-1.7-2.36s-1.7.93-1.7,2.36.66,2.35,1.7,2.35,1.7-.92,1.7-2.35Z"/><path class="cls-15" d="m166.55,187.33h-.58v-4.98l-.94.42v-.54l1.15-.5h.38v5.6Z"/><path class="cls-15" d="m168.31,183.65c0,.22-.18.41-.41.41s-.41-.18-.41-.41.18-.41.41-.41.41.18.41.41Zm0,3.33c0,.22-.18.41-.41.41s-.41-.18-.41-.41.18-.41.41-.41.41.18.41.41Z"/><path class="cls-15" d="m170.91,187.41c-.8,0-1.5-.27-2.05-.79l.39-.38c.49.46.99.66,1.65.66.85,0,1.44-.46,1.44-1.11,0-.61-.58-1.03-1.42-1.03h-.47v-.49h.44c.71,0,1.24-.47,1.24-1.1,0-.58-.54-1.01-1.26-1.01-.6,0-1.04.19-1.54.68l-.39-.39c.55-.54,1.2-.81,1.95-.81,1.06,0,1.83.64,1.83,1.51,0,.57-.36,1.05-.96,1.3.71.2,1.18.71,1.18,1.35,0,.93-.85,1.61-2.03,1.61Z"/><path class="cls-15" d="m173.51,186.9l2.12-2.04c.74-.73.97-1.08.97-1.58,0-.64-.54-1.1-1.28-1.1-.55,0-.98.19-1.55.69l-.34-.41c.61-.54,1.22-.79,1.9-.79,1.08,0,1.85.66,1.85,1.58,0,.66-.24,1.08-1.16,1.95l-1.7,1.62h2.97v.51h-3.77v-.43Z"/><path class="cls-15" d="m178.75,183.65c0,.22-.18.41-.41.41s-.41-.18-.41-.41.18-.41.41-.41.41.18.41.41Zm0,3.33c0,.22-.18.41-.41.41s-.41-.18-.41-.41.18-.41.41-.41.41.18.41.41Z"/><path class="cls-15" d="m179.79,181.73h3.29v.51h-2.79l-.08,1.83c.37-.14.75-.21,1.16-.21,1.19,0,2.01.7,2.01,1.71,0,1.1-.82,1.83-2.04,1.83-.77,0-1.44-.26-1.99-.76l.37-.39c.51.45.99.65,1.63.65.86,0,1.44-.53,1.44-1.3,0-.74-.62-1.25-1.52-1.25-.42,0-.84.09-1.26.26l-.34-.12.13-2.76Z"/><path class="cls-15" d="m183.79,186.9l2.12-2.04c.74-.73.97-1.08.97-1.58,0-.64-.54-1.1-1.28-1.1-.55,0-.98.19-1.55.69l-.34-.41c.61-.54,1.22-.79,1.9-.79,1.08,0,1.85.66,1.85,1.58,0,.66-.24,1.08-1.16,1.95l-1.7,1.62h2.97v.51h-3.77v-.43Z"/><path class="cls-15" d="m192.36,187.42c-1.42,0-2.31-.94-2.31-2.45v-3.23h.62v3.23c0,1.15.66,1.89,1.7,1.89s1.7-.74,1.7-1.89v-3.23h.62v3.23c0,1.5-.9,2.45-2.31,2.45Z"/><path class="cls-15" d="m195.31,181.73h4.66v.55h-2.02v5.05h-.62v-5.05h-2.02v-.55Z"/><path class="cls-15" d="m204.75,186.08l.4.42c-.56.58-1.35.92-2.2.92-1.63,0-2.9-1.27-2.9-2.89s1.27-2.89,2.9-2.89c.87,0,1.67.34,2.21.92l-.41.43c-.44-.5-1.12-.78-1.81-.78-1.3,0-2.28,1.01-2.28,2.32s.99,2.32,2.29,2.32c.7,0,1.36-.29,1.78-.77Z"/></g><g><path class="cls-15" d="m531.21,245.9l2.12-2.04c.74-.73.97-1.08.97-1.58,0-.64-.54-1.1-1.28-1.1-.55,0-.97.19-1.55.69l-.34-.41c.61-.54,1.22-.79,1.9-.79,1.08,0,1.85.66,1.85,1.58,0,.66-.24,1.08-1.16,1.95l-1.7,1.62h2.97v.51h-3.77v-.43Z"/><path class="cls-15" d="m535.61,243.53c0-1.7.94-2.88,2.28-2.88s2.29,1.18,2.29,2.88-.94,2.88-2.29,2.88-2.28-1.18-2.28-2.88Zm3.98,0c0-1.43-.66-2.36-1.7-2.36s-1.7.93-1.7,2.36.66,2.35,1.7,2.35,1.7-.92,1.7-2.35Z"/><path class="cls-15" d="m540.61,245.9l2.12-2.04c.74-.73.97-1.08.97-1.58,0-.64-.54-1.1-1.28-1.1-.55,0-.98.19-1.55.69l-.34-.41c.61-.54,1.22-.79,1.9-.79,1.08,0,1.85.66,1.85,1.58,0,.66-.24,1.08-1.16,1.95l-1.7,1.62h2.97v.51h-3.77v-.43Z"/><path class="cls-15" d="m546.87,246.41c-.8,0-1.5-.27-2.05-.79l.39-.38c.49.46.99.66,1.65.66.85,0,1.44-.46,1.44-1.11,0-.61-.58-1.03-1.42-1.03h-.47v-.49h.44c.71,0,1.24-.47,1.24-1.1,0-.58-.54-1.01-1.26-1.01-.6,0-1.04.19-1.54.68l-.39-.39c.55-.54,1.2-.81,1.95-.81,1.06,0,1.83.64,1.83,1.51,0,.57-.36,1.05-.96,1.3.71.2,1.18.71,1.18,1.35,0,.93-.85,1.61-2.03,1.61Z"/><path class="cls-15" d="m552.49,243.82v.53h-2.79v-.53h2.79Z"/><path class="cls-15" d="m553.24,243.53c0-1.7.94-2.88,2.28-2.88s2.29,1.18,2.29,2.88-.94,2.88-2.29,2.88-2.28-1.18-2.28-2.88Zm3.98,0c0-1.43-.66-2.36-1.7-2.36s-1.7.93-1.7,2.36.66,2.35,1.7,2.35,1.7-.92,1.7-2.35Z"/><path class="cls-15" d="m558.24,245.9l2.12-2.04c.74-.73.97-1.08.97-1.58,0-.64-.54-1.1-1.28-1.1-.55,0-.97.19-1.55.69l-.34-.41c.61-.54,1.22-.79,1.9-.79,1.08,0,1.85.66,1.85,1.58,0,.66-.24,1.08-1.16,1.95l-1.7,1.62h2.97v.51h-3.77v-.43Z"/><path class="cls-15" d="m565.46,243.82v.53h-2.79v-.53h2.79Z"/><path class="cls-15" d="m566.22,243.53c0-1.7.94-2.88,2.28-2.88s2.29,1.18,2.29,2.88-.94,2.88-2.29,2.88-2.28-1.18-2.28-2.88Zm3.98,0c0-1.43-.66-2.36-1.7-2.36s-1.7.93-1.7,2.36.66,2.35,1.7,2.35,1.7-.92,1.7-2.35Z"/><path class="cls-15" d="m571.51,244.82c0-.66.49-1.21,1.21-1.43-.59-.22-.98-.71-.98-1.29,0-.83.8-1.46,1.86-1.46s1.87.62,1.87,1.46c0,.58-.39,1.06-.98,1.29.72.22,1.21.78,1.21,1.43,0,.92-.88,1.59-2.09,1.59s-2.09-.67-2.09-1.59Zm3.6-.04c0-.64-.66-1.14-1.51-1.14s-1.51.5-1.51,1.14.66,1.15,1.51,1.15,1.51-.5,1.51-1.15Zm-.22-2.65c0-.57-.56-1.02-1.29-1.02s-1.29.45-1.29,1.02.56,1.01,1.29,1.01,1.29-.44,1.29-1.01Z"/><path class="cls-15" d="m577.07,242.83h-.86v-.5h.86v-1.02l.58-.15v1.17h1.21v.5h-1.21v2.45c0,.43.18.6.62.6.22,0,.38-.02.58-.1v.52c-.21.07-.47.1-.7.1-.7,0-1.08-.34-1.08-.97v-2.61Z"/><path class="cls-15" d="m579.35,243.53c0-1.7.94-2.88,2.28-2.88s2.29,1.18,2.29,2.88-.94,2.88-2.29,2.88-2.28-1.18-2.28-2.88Zm3.98,0c0-1.43-.66-2.36-1.7-2.36s-1.7.93-1.7,2.36.66,2.35,1.7,2.35,1.7-.92,1.7-2.35Z"/><path class="cls-15" d="m585.96,246.33h-.58v-4.98l-.94.42v-.54l1.15-.5h.38v5.6Z"/><path class="cls-15" d="m587.72,242.65c0,.22-.18.41-.41.41s-.41-.18-.41-.41.18-.41.41-.41.41.18.41.41Zm0,3.33c0,.22-.18.41-.41.41s-.41-.18-.41-.41.18-.41.41-.41.41.18.41.41Z"/><path class="cls-15" d="m590.33,246.41c-.8,0-1.5-.27-2.05-.79l.39-.38c.49.46.99.66,1.66.66.85,0,1.44-.46,1.44-1.11,0-.61-.58-1.03-1.42-1.03h-.47v-.49h.44c.71,0,1.24-.47,1.24-1.1,0-.58-.54-1.01-1.26-1.01-.6,0-1.04.19-1.54.68l-.39-.39c.55-.54,1.2-.81,1.95-.81,1.06,0,1.83.64,1.83,1.51,0,.57-.36,1.05-.96,1.3.71.2,1.18.71,1.18,1.35,0,.93-.85,1.61-2.03,1.61Z"/><path class="cls-15" d="m592.93,245.9l2.12-2.04c.74-.73.97-1.08.97-1.58,0-.64-.54-1.1-1.28-1.1-.55,0-.98.19-1.55.69l-.34-.41c.61-.54,1.22-.79,1.9-.79,1.08,0,1.85.66,1.85,1.58,0,.66-.24,1.08-1.16,1.95l-1.7,1.62h2.97v.51h-3.77v-.43Z"/><path class="cls-15" d="m598.17,242.65c0,.22-.18.41-.41.41s-.41-.18-.41-.41.18-.41.41-.41.41.18.41.41Zm0,3.33c0,.22-.18.41-.41.41s-.41-.18-.41-.41.18-.41.41-.41.41.18.41.41Z"/><path class="cls-15" d="m599.2,240.73h3.29v.51h-2.79l-.08,1.83c.37-.14.75-.21,1.16-.21,1.19,0,2.01.7,2.01,1.71,0,1.1-.82,1.83-2.04,1.83-.77,0-1.44-.26-1.99-.76l.37-.39c.51.45.99.65,1.63.65.86,0,1.44-.53,1.44-1.3,0-.74-.62-1.25-1.52-1.25-.42,0-.84.09-1.26.26l-.34-.12.13-2.76Z"/><path class="cls-15" d="m603.2,245.9l2.12-2.04c.74-.73.97-1.08.97-1.58,0-.64-.54-1.1-1.28-1.1-.55,0-.98.19-1.55.69l-.34-.41c.61-.54,1.22-.79,1.9-.79,1.08,0,1.85.66,1.85,1.58,0,.66-.24,1.08-1.16,1.95l-1.7,1.62h2.97v.51h-3.77v-.43Z"/><path class="cls-15" d="m608.44,245.97c0,.22-.18.41-.41.41s-.41-.18-.41-.41.18-.41.41-.41.41.18.41.41Z"/><path class="cls-15" d="m610.99,246.41c-.8,0-1.5-.27-2.05-.79l.39-.38c.49.46.99.66,1.66.66.85,0,1.44-.46,1.44-1.11,0-.61-.58-1.03-1.42-1.03h-.47v-.49h.44c.71,0,1.24-.47,1.24-1.1,0-.58-.54-1.01-1.26-1.01-.6,0-1.04.19-1.54.68l-.39-.39c.55-.54,1.2-.81,1.95-.81,1.06,0,1.83.64,1.83,1.51,0,.57-.36,1.05-.96,1.3.71.2,1.18.71,1.18,1.35,0,.93-.85,1.61-2.03,1.61Z"/><path class="cls-15" d="m616.85,241.25h-3.53v-.52h4.2v.45l-2.91,5.15h-.67l2.92-5.08Z"/><path class="cls-15" d="m619.86,246.41c-.8,0-1.5-.27-2.05-.79l.39-.38c.49.46.99.66,1.66.66.85,0,1.44-.46,1.44-1.11,0-.61-.58-1.03-1.42-1.03h-.47v-.49h.44c.71,0,1.24-.47,1.24-1.1,0-.58-.54-1.01-1.26-1.01-.6,0-1.04.19-1.54.68l-.39-.39c.55-.54,1.2-.81,1.95-.81,1.06,0,1.83.64,1.83,1.51,0,.57-.36,1.05-.96,1.3.71.2,1.18.71,1.18,1.35,0,.93-.85,1.61-2.03,1.61Z"/><path class="cls-15" d="m622.48,245.89l3.56-4.61h-3.53v-.54h4.33v.44l-3.57,4.61h3.64v.54h-4.43v-.44Z"/></g><g><path class="cls-15" d="m239.9,185.33h.67v.5h-.67v1.5h-.58v-1.5h-3.18v-.46l3.14-3.64h.62v3.6Zm-.58,0v-2.85l-2.46,2.85h2.46Z"/><path class="cls-15" d="m241.94,186.97c0,.22-.18.41-.41.41s-.41-.18-.41-.41.18-.41.41-.41.41.18.41.41Z"/><path class="cls-15" d="m244.48,187.41c-.8,0-1.5-.27-2.05-.79l.39-.38c.49.46.99.66,1.65.66.85,0,1.44-.46,1.44-1.11,0-.61-.58-1.03-1.42-1.03h-.47v-.49h.44c.71,0,1.24-.47,1.24-1.1,0-.58-.54-1.01-1.26-1.01-.6,0-1.04.19-1.54.68l-.39-.39c.55-.54,1.2-.81,1.95-.81,1.06,0,1.83.64,1.83,1.51,0,.57-.36,1.05-.96,1.3.71.2,1.18.71,1.18,1.35,0,.93-.85,1.61-2.03,1.61Z"/></g><g><path class="cls-15" d="m305.21,186.9l2.12-2.04c.74-.73.97-1.08.97-1.58,0-.64-.54-1.1-1.28-1.1-.55,0-.98.19-1.55.69l-.34-.41c.61-.54,1.22-.79,1.9-.79,1.08,0,1.85.66,1.85,1.58,0,.66-.24,1.08-1.16,1.95l-1.7,1.62h2.97v.51h-3.77v-.43Z"/><path class="cls-15" d="m312.78,182.25h-3.53v-.52h4.2v.45l-2.91,5.15h-.67l2.92-5.08Z"/><path class="cls-15" d="m313.93,186.97c0,.22-.18.41-.41.41s-.41-.18-.41-.41.18-.41.41-.41.41.18.41.41Z"/><path class="cls-15" d="m314.48,185.82c0-.66.49-1.21,1.21-1.43-.59-.22-.98-.71-.98-1.29,0-.83.8-1.46,1.86-1.46s1.87.62,1.87,1.46c0,.58-.39,1.06-.98,1.29.72.22,1.21.78,1.21,1.43,0,.92-.88,1.59-2.09,1.59s-2.09-.67-2.09-1.59Zm3.6-.04c0-.64-.66-1.14-1.51-1.14s-1.51.5-1.51,1.14.66,1.15,1.51,1.15,1.51-.5,1.51-1.15Zm-.22-2.65c0-.57-.56-1.02-1.3-1.02s-1.29.45-1.29,1.02.56,1.01,1.29,1.01,1.3-.44,1.3-1.01Z"/><path class="cls-15" d="m319.59,181.73h3.29v.51h-2.79l-.08,1.83c.37-.14.75-.21,1.16-.21,1.19,0,2.01.7,2.01,1.71,0,1.1-.82,1.83-2.04,1.83-.77,0-1.44-.26-1.99-.76l.37-.39c.51.45.99.65,1.63.65.86,0,1.44-.53,1.44-1.3,0-.74-.62-1.25-1.52-1.25-.42,0-.84.09-1.26.26l-.34-.12.13-2.76Z"/></g><g><path class="cls-15" d="m349.28,185.82c0-.66.49-1.21,1.21-1.43-.59-.22-.98-.71-.98-1.29,0-.83.8-1.46,1.86-1.46s1.87.62,1.87,1.46c0,.58-.39,1.06-.98,1.29.72.22,1.21.78,1.21,1.43,0,.92-.88,1.59-2.09,1.59s-2.09-.67-2.09-1.59Zm3.6-.04c0-.64-.66-1.14-1.51-1.14s-1.51.5-1.51,1.14.66,1.15,1.51,1.15,1.51-.5,1.51-1.15Zm-.22-2.65c0-.57-.56-1.02-1.3-1.02s-1.29.45-1.29,1.02.56,1.01,1.29,1.01,1.3-.44,1.3-1.01Z"/><path class="cls-15" d="m357.82,185.33h.67v.5h-.67v1.5h-.58v-1.5h-3.18v-.46l3.14-3.64h.62v3.6Zm-.58,0v-2.85l-2.46,2.85h2.46Z"/><path class="cls-15" d="m359.86,186.97c0,.22-.18.41-.41.41s-.41-.18-.41-.41.18-.41.41-.41.41.18.41.41Z"/><path class="cls-15" d="m360.38,184.53c0-1.7.94-2.88,2.28-2.88s2.29,1.18,2.29,2.88-.94,2.88-2.29,2.88-2.28-1.18-2.28-2.88Zm3.98,0c0-1.43-.66-2.36-1.7-2.36s-1.7.93-1.7,2.36.66,2.35,1.7,2.35,1.7-.92,1.7-2.35Z"/><path class="cls-15" d="m365.67,185.82c0-.66.49-1.21,1.21-1.43-.59-.22-.98-.71-.98-1.29,0-.83.8-1.46,1.86-1.46s1.87.62,1.87,1.46c0,.58-.39,1.06-.98,1.29.72.22,1.21.78,1.21,1.43,0,.92-.88,1.59-2.09,1.59s-2.09-.67-2.09-1.59Zm3.6-.04c0-.64-.66-1.14-1.51-1.14s-1.51.5-1.51,1.14.66,1.15,1.51,1.15,1.51-.5,1.51-1.15Zm-.22-2.65c0-.57-.56-1.02-1.3-1.02s-1.29.45-1.29,1.02.56,1.01,1.29,1.01,1.3-.44,1.3-1.01Z"/></g><g><path class="cls-15" d="m413.67,187.33h-.58v-4.98l-.94.42v-.54l1.15-.5h.38v5.6Z"/><path class="cls-15" d="m414.59,184.53c0-1.7.94-2.88,2.28-2.88s2.29,1.18,2.29,2.88-.94,2.88-2.29,2.88-2.28-1.18-2.28-2.88Zm3.98,0c0-1.43-.66-2.36-1.7-2.36s-1.7.93-1.7,2.36.66,2.35,1.7,2.35,1.7-.92,1.7-2.35Z"/></g><rect class="cls-8" x="532" y="301" width="103" height="46" rx="7.99" ry="7.99"/><rect class="cls-8" x="532.5" y="381.5" width="103" height="46" rx="7.99" ry="7.99"/></g></g></g></svg>