<?xml version="1.0" encoding="utf-8"?>
<!-- Generator: Adobe Illustrator 27.1.1, SVG Export Plug-In . SVG Version: 6.00 Build 0)  -->
<svg version="1.1" id="Layer_1" xmlns="http://www.w3.org/2000/svg" xmlns:xlink="http://www.w3.org/1999/xlink" x="0px" y="0px"
	 viewBox="0 0 51.4 36.4" style="enable-background:new 0 0 51.4 36.4;" xml:space="preserve">
<style type="text/css">
	.st0{fill:#FFFFFF;}
</style>
<g id="Layer_2_00000028302141106571425270000009057158222617240454_">
	<g id="Layer_2-2">
		<path class="st0" d="M35,18.4L35,18.4c-1.2,0.2-2,1.2-2,2.4c0,1.7,1.2,3.2,2.9,3.6c0.2,0,0.3,0.1,0.5,0c0.5,0,0.9-0.2,1.3-0.4
			c0.5-0.3,0.8-0.9,0.8-1.4c0-1.2-0.5-2.4-1.4-3.3C36.6,18.7,35.8,18.3,35,18.4z M37,22.9c-0.2,0.2-0.6,0.2-0.8,0.2
			c-1.1-0.3-1.9-1.3-1.9-2.4c0-0.5,0.4-1,0.9-1.1c0.4,0,0.9,0.2,1.2,0.5c0.6,0.6,1,1.4,1,2.2C37.3,22.6,37.1,22.8,37,22.9L37,22.9z"
			/>
		<path class="st0" d="M51.3,4c-0.2-0.3-0.6-0.4-0.9-0.2c0,0,0,0,0,0l-7.3,4.5l-2.5,5.5c-0.2-0.1-0.3-0.2-0.5-0.3l1.5-5.2L46.3,1
			c0.2-0.3,0.1-0.7-0.2-0.9c-0.3-0.2-0.7-0.1-0.9,0.2l-4.7,7.4L39,12.9c-2.6-0.9-5.5-0.4-7.8,1.2l-0.1,0.1c-0.5,0.4-0.9,0.8-1.2,1.4
			c-3.4-2.2-7.5-3.2-11.6-2.8c-2.8,0.2-5.5,0.6-8.2,1.4c-0.6,0.2-1.2,0.3-2,0.5c-2.8,0.6-6.8,1.1-6.8,1.1L0,16l0.9,0.9
			c1.4,1.3,3,2.5,4.7,3.4l0,0c1.5,3.5,4.2,6.3,7.6,7.9v1.5l-3.5,5.1c-0.2,0.3-0.1,0.7,0.2,0.9c0.1,0.1,0.2,0.1,0.4,0.1
			c0.2,0,0.4-0.1,0.5-0.3l3.7-5.4v-1.4c2,0.7,4.1,1,6.2,1h0.9c0.8,0,1.5-0.1,2.2-0.1l1.8,6.3c0.1,0.3,0.3,0.5,0.6,0.5
			c0.1,0,0.1,0,0.2,0c0.3-0.1,0.5-0.4,0.4-0.8c0,0,0,0,0,0l-1.7-6c1.5-0.1,2.9-0.4,4.3-0.7l1.5,3.4c0.1,0.2,0.3,0.4,0.6,0.4
			c0.1,0,0.2,0,0.3,0c0.3-0.2,0.5-0.5,0.3-0.9l-1.4-3.3c0.8-0.2,1.6-0.7,2.2-1.3v0c1.9,1.7,4.4,2.8,7,2.9c1.3,0,2.5-0.4,3.5-1.2
			c1.1-1.1,1.7-2.6,1.8-4.2c0.3-3.4-0.7-6.9-2.9-9.6c-0.2-0.2-0.4-0.4-0.5-0.6l2.5-5.5l6.9-4.3C51.4,4.7,51.5,4.3,51.3,4
			C51.3,4,51.3,4,51.3,4z M2.9,16.9c1.4-0.2,3.7-0.6,5.5-0.9c0.9-0.2,1.5-0.4,2.1-0.5c2.6-0.7,5.3-1.2,7.9-1.4
			c3.8-0.4,7.6,0.5,10.8,2.6c-0.4,0.8-0.6,1.6-0.7,2.5c-0.1,0.7,0,1.4,0.1,2.1c-1.5-0.4-3-0.7-4.5-0.8c-1.7-0.1-4.5,0-8.3,0.1
			l-3.8,0.1c-2,0-3.9-0.5-5.6-1.4C5.2,18.6,4,17.8,2.9,16.9z M24.7,28.3l-1.3,0.1l-1.9,0.1c-2.4,0.1-4.8-0.2-7-1.1l-1.3-0.6
			c-2.4-1.3-4.4-3.2-5.7-5.6c1.5,0.6,3,0.9,4.6,0.8l3.9-0.1c3.6-0.1,6.5-0.2,8.1-0.1c1.7,0.2,3.4,0.5,5.1,1c0.3,0.6,0.6,1.2,1.1,1.7
			c0.5,0.6,1.1,1.2,1.6,1.8C31.6,26.7,30.4,27.8,24.7,28.3z M43.8,24.7c0,1.2-0.5,2.4-1.3,3.3c-1.9,1.5-6.9,1.2-11.3-4.3
			c-2.2-2.5-1.9-6.3,0.6-8.5c0,0,0,0,0,0c2-1.5,4.7-1.8,7.1-0.8l0.2,0.1c0.4,0.2,0.8,0.5,1.2,0.8l0.1,0.1c0.3,0.2,0.5,0.5,0.8,0.7
			C43.2,18.5,44.1,21.6,43.8,24.7z"/>
	</g>
</g>
</svg>
