<?xml version="1.0" encoding="utf-8"?>
<!-- Generator: Adobe Illustrator 25.3.1, SVG Export Plug-In . SVG Version: 6.00 Build 0)  -->
<svg version="1.1" xmlns="http://www.w3.org/2000/svg" xmlns:xlink="http://www.w3.org/1999/xlink" x="0px" y="0px"
	 viewBox="0 0 53.4 38.3" style="enable-background:new 0 0 53.4 38.3;" xml:space="preserve">
<style type="text/css">
	.st0{fill:none;stroke:#FFFFFF;stroke-width:1.3;stroke-linecap:round;stroke-linejoin:round;}
</style>
<g id="Layer_2">
	<rect x="-242.9" y="-152" width="642.6" height="337.4"/>
</g>
<g id="Layer_1">
	<g id="Layer_2_2_">
		<g id="Layer_1-2_1_">
			<path class="st0" d="M-2.1,16.2c0,0,3.5,10.3,16.2,9.8s11.7-3.3,11.7-3.3"/>
			<polyline class="st0" points="18.6,21.2 16.5,24.6 19,33 			"/>
			<line class="st0" x1="22.8" y1="25" x2="24.6" y2="29.1"/>
			<polyline class="st0" points="6,20.4 6,26.9 2.2,32.5 			"/>
			<polyline class="st0" points="32.9,9.8 34.6,3.8 39.6,-4 			"/>
			<polyline class="st0" points="34.7,10.7 37.4,4.5 44.9,-0.1 			"/>
			<path class="st0" d="M23,12.7c-3.6-2.5-7.9-3.6-12.3-3.2c-7.4,0.7-7.7,1.4-10.7,2c-3,0.6-7.2,1.2-7.2,1.2s5.3,5.4,11.3,5.2
				s10.4-0.4,12.7-0.3c1.9,0.2,3.8,0.6,5.6,1.1"/>
			<path class="st0" d="M24.6,10.8c3.1-2.1,7.5-2.6,10.7,1.1c3.8,4.3,3.6,11.8,1.3,13.5c-2.5,2-8.1,1.2-12.9-4.6
				C21.3,17.8,21.6,13.4,24.6,10.8C24.6,10.8,24.6,10.8,24.6,10.8z"/>
			<path class="st0" d="M28.3,15.4c-0.9,0.1-1.6,0.9-1.5,1.8c0,1.5,1,2.8,2.5,3.2c0.9,0.2,1.8-0.4,2-1.3
				C31.4,17.2,29.5,15.1,28.3,15.4"/>
		</g>
	</g>
	<path class="st0" d="M71.8,17.7c0.7,3.4,0.1,6.8-1.4,7.9c-2.5,2-8.1,1.2-12.9-4.6c-2.5-2.9-2.2-7.4,0.7-9.9c0,0,0,0,0.1-0.1
		c0,0,2-2.2,5.1-1.8c4.1,0.4,6.4,3.4,6.4,3.4"/>
	<line class="st0" x1="66.5" y1="17.7" x2="71.8" y2="17.7"/>
	<rect x="74.2" y="9.7" style="fill:none;" width="47.8" height="21.1"/>
	<text transform="matrix(1 0 0 1 74.2395 27.4428)" style="fill:#FFFFFF; font-family:'IBMPlexSans'; font-size:24px;">rillo</text>
	<rect x="-10.9" y="43.8" style="fill:none;" width="60.1" height="16.1"/>
</g>
</svg>
