<?xml version="1.0" encoding="UTF-8"?>
<svg id="Layer_2" data-name="Layer 2" xmlns="http://www.w3.org/2000/svg" viewBox="0 0 145.06 123.89">
  <defs>
    <style>
      .cls-1, .cls-2 {
        fill: #fff;
      }

      .cls-3 {
        fill: #e42774;
      }

      .cls-2 {
        font-family: SourceSansRoman-Black, 'Source Sans Variable';
        font-size: 15.29px;
        font-variation-settings: 'wght' 900;
        font-weight: 800;
      }

      .cls-4 {
        fill: #3a3a3a;
        stroke: #000;
        stroke-miterlimit: 10;
      }

      .cls-5 {
        fill: #515151;
      }

      .cls-6 {
        isolation: isolate;
        opacity: .1;
      }
    </style>
  </defs>
  <g id="Layer_4" data-name="Layer 4">
    <path class="cls-6" d="m144.97,77.58c2.02,21.47-28.78,41.94-68.79,45.71C36.19,127.06,2.13,112.73.09,91.27c-.05-.49-.08-.97-.08-1.46-.53-21.6,31.5-41.52,71.56-44.49,39-2.9,71.43,11.35,73.4,32.26Z"/>
  </g>
  <g id="Layer_3" data-name="Layer 3">
    <path class="cls-4" d="m35.54.5h38.64c3.84,0,7.17,2.66,8.01,6.41l19.52,86.59c.81,3.58-1.44,7.13-5.02,7.94-.37.08-.75.14-1.13.15l-39.72,1.96c-4.4.22-8.28-2.86-9.06-7.2l-11.07-61.22-.82.24-2.12-11.6.85-.21-3.09-17.09c-.5-2.75,1.33-5.38,4.08-5.88.31-.06.63-.08.94-.08Z"/>
    <path class="cls-5" d="m69.09,2.37h4.51c2.67,0,4.98,1.86,5.55,4.47l18.74,85.88c.41,1.9-.79,3.77-2.69,4.19-.17.04-.34.06-.52.07l-39.59,2.59c-2.31.15-4.37-1.46-4.78-3.74L34.32,7.06c-.39-2.17,1.05-4.24,3.22-4.63.23-.04.47-.06.71-.06h4.28c.85,0,1.6.57,1.82,1.39h0c.2.73.85,1.23,1.61,1.23h20.31c1.48,0,2.72-1.14,2.83-2.62h0Z"/>
    <path class="cls-6" d="m55.86,43.84c0,5.29,4.29,9.58,9.59,9.58,5.29,0,9.58-4.29,9.58-9.58,0-.12,0-.24,0-.36-.2-5.29-4.65-9.42-9.94-9.22-5.15.19-9.23,4.42-9.23,9.58Z"/>
    <path class="cls-3" d="m56.77,47.57c0,.12,0,.24,0,.36,2.26,4.79,7.97,6.84,12.76,4.58,3.35-1.58,5.49-4.96,5.49-8.67,0-.12,0-.24,0-.36-2.26-4.79-7.97-6.84-12.76-4.58-3.35,1.58-5.49,4.96-5.49,8.67h0Z"/>
    <text class="cls-2" transform="translate(69.44 50.23) rotate(172.75) scale(1 -1)"><tspan x="0" y="0">!</tspan></text>
  </g>
  <g id="Layer_5" data-name="Layer 5">
    <g id="Layer_2-2" data-name="Layer 2">
      <g id="Layer_2-2" data-name="Layer 2-2">
        <path class="cls-1" d="m62.77,12.65h0c-.31.05-.48.29-.41.56.09.39.49.72.97.8.05,0,.09.02.13,0,.13,0,.23-.05.33-.1.12-.07.17-.21.14-.33-.06-.27-.26-.55-.55-.75-.17-.13-.4-.22-.61-.19Zm.77,1.02s-.15.05-.2.05c-.31-.06-.58-.28-.64-.54-.03-.11.06-.23.19-.26.11,0,.25.04.35.11.19.13.34.31.39.52-.02.05-.06.09-.08.12h0Z"/>
        <path class="cls-1" d="m66.41,9.23c-.07-.07-.18-.09-.25-.04h0l-1.73,1.09-.39,1.28c-.06-.02-.09-.04-.15-.06l.13-1.2.89-1.71c.04-.07,0-.16-.1-.2-.09-.04-.19-.02-.23.05l-.88,1.73-.13,1.2c-.75-.19-1.5-.05-2.04.33l-.02.02c-.11.1-.2.19-.25.33-1.03-.48-2.18-.68-3.27-.55-.74.07-1.45.18-2.13.38-.15.05-.31.08-.51.13-.72.16-1.77.3-1.77.3l-.34.06.29.2c.44.29.94.55,1.44.74h0c.59.79,1.46,1.41,2.46,1.75l.08.34-.68,1.19c-.04.07,0,.16.1.2.03.02.06.02.11.02s.1-.03.12-.07l.72-1.26-.07-.32c.57.15,1.16.2,1.72.18h.24c.22-.01.4-.04.59-.05l.81,1.43c.04.07.11.11.19.11h.05c.08-.03.11-.1.07-.19h0l-.77-1.36c.4-.03.76-.11,1.12-.19l.58.77s.1.09.18.09h.08c.07-.05.11-.12.03-.21l-.55-.75c.2-.05.39-.17.52-.31h0c.6.38,1.33.61,2.03.61.35,0,.65-.11.88-.3.24-.26.32-.61.27-.98-.1-.78-.55-1.58-1.28-2.18-.06-.04-.13-.09-.17-.13l.39-1.28,1.63-1.04c.05,0,.06-.09,0-.16h0Zm-12.36,3.32c.37-.06.96-.17,1.43-.25.23-.05.38-.1.54-.13.66-.18,1.36-.31,2.05-.38,1-.12,2.07.06,3.04.51-.07.19-.08.37-.06.58,0,.16.07.32.14.48-.42-.08-.84-.14-1.25-.15-.46-.01-1.21.03-2.23.08l-1.02.05c-.54.01-1.08-.09-1.58-.28-.36-.15-.72-.33-1.07-.52Zm6.46,2.45l-.34.03-.51.04c-.64.04-1.3,0-1.94-.2l-.38-.13c-.71-.28-1.35-.7-1.82-1.24.43.13.85.18,1.28.15l1.04-.05c.96-.05,1.73-.12,2.18-.08.47.03.94.09,1.42.19.11.14.22.27.38.38.17.13.36.27.52.4-.06.09-.33.35-1.83.51Zm4.95-.97c.06.27-.01.55-.18.77-.43.36-1.8.33-3.26-.9-.72-.56-.84-1.43-.28-1.95h0c.46-.36,1.17-.45,1.87-.24l.06.02c.12.04.24.11.36.17l.03.02c.09.04.16.11.25.15.66.53,1.07,1.24,1.15,1.95Z"/>
      </g>
    </g>
  </g>
</svg>